<?xml version="1.0" standalone="no"?><!DOCTYPE svg PUBLIC "-//W3C//DTD SVG 1.1//EN" "http://www.w3.org/Graphics/SVG/1.1/DTD/svg11.dtd"><svg width="100%" height="100%" viewBox="0 0 22 9" version="1.1" xmlns="http://www.w3.org/2000/svg" xmlns:xlink="http://www.w3.org/1999/xlink" xml:space="preserve" style="fill-rule:evenodd;clip-rule:evenodd;stroke-linejoin:round;stroke-miterlimit:1.41421;"><g><rect x="0" y="0" width="21.6" height="8.16" style="fill:#425585;fill-rule:nonzero;"/><path d="M11.789,4.922c-0.031,0.22 -0.206,0.335 -0.414,0.319c-0.051,-0.004 -0.098,-0.015 -0.141,-0.031c-0.167,-0.096 -0.217,-0.257 -0.232,-0.358c0,0 0,0 0,0c-0.012,-0.156 -0.024,-0.483 0.052,-0.638c0.065,-0.118 0.178,-0.183 0.327,-0.188c0.213,-0.007 0.374,0.099 0.406,0.315c0.028,0.19 0.029,0.391 0.002,0.581ZM11.684,3.479c-0.267,-0.029 -0.498,0.052 -0.694,0.287l0,-0.073l0,-1.267l0,-0.014l0,-0.086l-0.706,0.086l0,3.332l0.706,0l0,-0.198c0.096,0.068 0.188,0.15 0.297,0.189c0.412,0.148 0.955,0.027 1.145,-0.523c0.122,-0.354 0.119,-0.716 0.027,-1.074c-0.102,-0.396 -0.366,-0.616 -0.775,-0.659Z" style="fill:#e1dfd8;fill-rule:nonzero;"/><path d="M14.219,4.886c-0.003,0.015 -0.005,0.029 -0.009,0.044c-0.047,0.208 -0.198,0.321 -0.4,0.312c-0.217,-0.01 -0.366,-0.137 -0.387,-0.354c-0.015,-0.158 -0.016,-0.32 -0.003,-0.479c0.021,-0.25 0.177,-0.387 0.412,-0.382c0.193,0.003 0.331,0.113 0.38,0.298c0.044,0.187 0.011,0.519 0.007,0.561ZM14.189,3.52c-0.246,-0.066 -0.494,-0.065 -0.739,0c-0.367,0.098 -0.613,0.33 -0.692,0.7c-0.044,0.201 -0.052,0.415 -0.041,0.622c0.026,0.473 0.319,0.81 0.773,0.914c0.006,0.002 0.012,0.003 0.019,0.004l0,0c0,0 0.001,0.001 0.003,0.001c0.018,0.003 0.035,0.007 0.053,0.009c0.005,0.001 0.011,0.001 0.017,0.002c0,0 0.001,0 0.001,0c0.022,0.004 0.048,0.007 0.076,0.009c0.089,0.01 0.202,0.016 0.296,0.005c0.001,0 0.001,0 0.002,0c0.004,0 0.009,0 0.014,0c0.469,-0.025 0.824,-0.32 0.928,-0.773c0.057,-0.249 0.057,-0.499 0.002,-0.747c-0.086,-0.391 -0.323,-0.642 -0.712,-0.746Z" style="fill:#e1dfd8;fill-rule:nonzero;"/><path d="M3.577,3.508l-0.504,0l0,-0.335c0.037,-0.318 0.561,-0.257 0.561,-0.257l0,-0.022l0,-0.002l0,-0.521l-0.001,0l0,0c-0.018,-0.005 -1.042,-0.248 -1.246,0.532c0,0 0,0 0,0c0,0.002 -0.001,0.004 -0.001,0.005c-0.032,0.098 -0.03,0.544 -0.029,0.6l-0.438,0l0,0.597l0.465,0l0,1.623l0.676,0l0,-1.623l0.517,0l0.058,-0.597l-0.058,0Z" style="fill:#e1dfd8;fill-rule:nonzero;"/><path d="M5.132,4.919c-0.022,0.207 -0.189,0.331 -0.387,0.323c-0.203,-0.008 -0.337,-0.116 -0.381,-0.311c-0.052,-0.276 0.009,-0.605 0.015,-0.632c0.053,-0.185 0.188,-0.277 0.386,-0.273c0.194,0.005 0.344,0.12 0.366,0.322c0.021,0.188 0.021,0.382 0.001,0.571ZM5.19,3.794c-0.008,-0.009 -0.016,-0.018 -0.024,-0.026l0,0c-0.001,-0.001 -0.002,-0.002 -0.003,-0.003c-0.009,-0.01 -0.016,-0.017 -0.016,-0.017c-0.16,-0.162 -0.22,-0.202 -0.344,-0.239c-0.48,-0.141 -0.947,0.11 -1.095,0.592c-0.091,0.297 -0.092,0.602 -0.039,0.902c0.115,0.651 0.599,0.869 1.114,0.761c0.159,-0.033 0.276,-0.131 0.385,-0.268c0,0 0.01,-0.012 0.022,-0.036l0,0.286l0.66,0l0,-2.235l-0.66,0l0,0.283Z" style="fill:#e1dfd8;fill-rule:nonzero;"/><path d="M7.865,5.586c-0.031,-0.112 -0.066,-0.222 -0.099,-0.329l-0.032,-0.119c0,0 -0.827,0.397 -0.956,-0.357c-0.012,-0.124 -0.008,-0.253 0.009,-0.376c0.032,-0.232 0.173,-0.356 0.398,-0.377c0.076,-0.007 0.155,-0.004 0.231,0.009c0.102,0.018 0.202,0.048 0.314,0.076c0.039,-0.119 0.079,-0.237 0.116,-0.356c0.006,-0.019 0.011,-0.035 0.015,-0.049l0.019,-0.071c-0.005,-0.01 -0.016,-0.02 -0.031,-0.029l0,0c-0.019,-0.016 -0.052,-0.029 -0.102,-0.048c-0.021,-0.007 -0.041,-0.014 -0.061,-0.02c-0.018,-0.006 -0.03,-0.009 -0.03,-0.009l0,0c-0.217,-0.063 -0.44,-0.067 -0.667,-0.043c-0.477,0.05 -0.802,0.332 -0.891,0.797c-0.048,0.245 -0.045,0.492 0.009,0.738c0.081,0.367 0.304,0.605 0.666,0.711c0.236,0.069 0.479,0.073 0.72,0.035c0.101,-0.015 0.246,-0.068 0.351,-0.105l0.039,-0.014l-0.018,-0.064l0,0Z" style="fill:#e1dfd8;fill-rule:nonzero;"/><path d="M9.405,4.407l-0.763,0c0.004,-0.152 0.023,-0.293 0.158,-0.379c0.143,-0.092 0.302,-0.095 0.449,-0.013c0.149,0.082 0.161,0.231 0.156,0.392ZM10.041,4.712c-0.003,-0.155 -0.001,-0.311 -0.023,-0.463c-0.06,-0.417 -0.314,-0.681 -0.725,-0.75c-0.156,-0.026 -0.322,-0.023 -0.481,-0.007c-0.436,0.041 -0.767,0.313 -0.835,0.721c-0.041,0.248 -0.046,0.511 -0.013,0.76c0.05,0.374 0.233,0.613 0.548,0.727c0,0 0,0 0,0c0.002,0.001 0.003,0.001 0.004,0.001l0,0c0.144,0.043 0.849,0.227 1.47,-0.085l-0.025,-0.091c0,0 -0.001,0 -0.001,0c-0.029,-0.122 -0.063,-0.242 -0.096,-0.363l-0.003,-0.012c0,0 -0.013,0.004 -0.036,0.012c-0.001,0 -0.001,0 -0.002,0c-0.027,0.007 -0.054,0.015 -0.08,0.024c-0.005,0.002 -0.01,0.003 -0.015,0.005c-0.094,0.026 -0.229,0.059 -0.37,0.077c-0.12,0.012 -0.24,0.013 -0.361,0.002c-0.198,-0.032 -0.349,-0.138 -0.341,-0.388l0.112,0c0.387,0 0.774,0 1.16,0c0.01,0 0.019,0 0.028,0l0,0c0,0 0.083,-0.001 0.087,-0.002c0,0 -0.001,-0.022 0,-0.024l-0.002,-0.144Z" style="fill:#e1dfd8;fill-rule:nonzero;"/><path d="M19.681,3.534l-0.75,0l-0.651,1.018l0,-2.124l0,-0.014l0,-0.086l-0.707,0.086l0,3.332l0.707,0l0,-1.019l0.651,1.021l0.75,0l-0.707,-1.109l0.707,-1.105Z" style="fill:#e1dfd8;fill-rule:nonzero;"/><path d="M16.629,4.886c-0.002,0.015 -0.004,0.029 -0.008,0.044c-0.047,0.208 -0.198,0.321 -0.4,0.312c-0.217,-0.011 -0.366,-0.137 -0.387,-0.354c-0.015,-0.159 -0.017,-0.321 -0.003,-0.479c0.021,-0.251 0.177,-0.388 0.412,-0.383c0.193,0.004 0.33,0.113 0.379,0.299c0.045,0.186 0.012,0.518 0.007,0.561ZM16.6,3.52c-0.246,-0.066 -0.494,-0.065 -0.739,0c-0.367,0.098 -0.613,0.33 -0.692,0.699c-0.044,0.202 -0.052,0.416 -0.041,0.623c0.026,0.472 0.319,0.809 0.772,0.914c0.007,0.001 0.013,0.003 0.02,0.004l0,0c0,0 0.001,0 0.003,0.001c0.017,0.003 0.035,0.006 0.053,0.009c0.005,0.001 0.011,0.001 0.017,0.001c0,0.001 0,0.001 0.001,0.001c0.022,0.004 0.048,0.007 0.076,0.009c0.089,0.009 0.202,0.016 0.296,0.005c0.001,0 0.001,0 0.002,0c0.004,0 0.009,0 0.014,-0.001c0.468,-0.024 0.824,-0.32 0.928,-0.773c0.057,-0.248 0.057,-0.498 0.002,-0.747c-0.087,-0.39 -0.323,-0.641 -0.712,-0.745Z" style="fill:#e1dfd8;fill-rule:nonzero;"/></g></svg>