<?xml version="1.0" standalone="no"?><!DOCTYPE svg PUBLIC "-//W3C//DTD SVG 1.1//EN" "http://www.w3.org/Graphics/SVG/1.1/DTD/svg11.dtd"><svg width="100%" height="100%" viewBox="0 0 220 230" version="1.1" xmlns="http://www.w3.org/2000/svg" xmlns:xlink="http://www.w3.org/1999/xlink" xml:space="preserve" style="fill-rule:evenodd;clip-rule:evenodd;stroke-linejoin:round;stroke-miterlimit:1.41421;"><g><path d="M46.173,122.819c-1.193,1.913 -19.24,-1.336 -45.184,16.617l29.309,18.482l-9.409,35.628c14.474,-8.886 23.937,-11.529 39.781,-13.049l-3.803,-49.215l-10.694,-8.463Z" style="fill:#ccc;"/><clipPath id="_clip1"><path d="M46.173,122.819c-1.193,1.913 -19.24,-1.336 -45.184,16.617l29.309,18.482l-9.409,35.628c14.474,-8.886 23.937,-11.529 39.781,-13.049l-3.803,-49.215l-10.694,-8.463Z"/></clipPath><g clip-path="url(#_clip1)"><path d="M63.24,163.795l1.715,-21.534l-19.597,13.55c4.923,4.784 12.972,6.254 17.882,7.984Z" style="fill:#999;"/></g><path d="M171.859,105.317c12.987,-8.502 28.668,-11.654 47.152,-9.719l-24.661,-25.975l13.022,-30.492c-18.221,-1.648 -34.281,0.924 -47.151,9.719l11.638,56.467Z" style="fill:#ccc;"/><clipPath id="_clip2"><path d="M171.859,105.317c12.987,-8.502 28.668,-11.654 47.152,-9.719l-24.661,-25.975l13.022,-30.492c-18.221,-1.648 -34.281,0.924 -47.151,9.719l11.638,56.467Z"/></clipPath><g clip-path="url(#_clip2)"><path d="M184.861,62.896c-5.942,-4.243 -12.834,-5.862 -20.511,-5.308l4.342,18.574l16.169,-13.266Z" style="fill:#999;"/></g><clipPath id="_clip3"><path d="M167.231,134.436c0.002,0.003 0.13,0.339 -2.81,31.99c-0.95,10.23 -2.221,23.732 -3.92,41.551c-1.078,11.306 -22.089,20.579 -49.297,20.579c-27.207,0 -48.225,-9.272 -49.297,-20.579c-2.07,-21.854 -3.504,-37.214 -4.497,-48.009c-2.338,-25.42 -2.232,-25.532 -2.232,-25.532c-2.863,-31.363 -4.979,-57.138 -4.999,-59.066c-0.456,-43.465 26.8,-51.363 60.47,-51.717c33.671,-0.353 61.087,6.97 61.544,50.436c0.03,2.886 -0.443,12.747 -4.962,60.347l0,0Z"/></clipPath><g clip-path="url(#_clip3)"><path d="M61.9,208.545c-0.445,-5.407 -1.794,-14.137 -1.794,-14.137c0,0 -7.307,-19.505 18.955,-10.464c9.481,3.264 18.384,10.74 21.43,5.975c0.88,-1.377 -0.579,-7.086 -2.734,-10.024c-2.364,-3.222 -5.534,-3.867 -7.012,-7.077c-0.862,-1.872 -0.219,-5.69 2.882,-5.799c5.667,-0.198 9.086,6.484 9.302,12.185c0.279,7.375 -1.268,8.95 1.53,12.935c4.16,5.923 27.917,-0.229 36.707,-4.314c29.545,-13.73 22.064,-3.881 22.064,-3.881c0,0 -2.696,24.219 -2.736,24.601c-1.112,10.621 -22.089,19.338 -49.297,19.338c-27.207,0 -48.42,-8.697 -49.297,-19.338Z" style="fill:#bfbfbf;"/><path d="M61.907,207.977c-0.445,-5.755 -1.809,-15.295 -1.809,-15.295c0,0 12.569,11.545 30.113,14.188c38.847,5.852 73.191,-25.852 73.191,-25.852c0,0 -2.861,26.552 -2.901,26.959c-1.112,11.303 -22.089,20.579 -49.297,20.579c-27.207,0 -48.42,-9.255 -49.297,-20.579Z" style="fill:#dcdcdc;"/><path d="M56.672,156.745c1.423,10.748 -3.321,36.618 7.569,31.634c1.356,-0.621 3.112,-3.182 0,-8.436c-1.87,-3.156 -4.617,-9.789 -4.042,-13.547c0.392,-2.561 1.45,-4.65 3.309,-5.433c6.776,-2.854 9.77,4.659 16.249,4.096c3.261,-0.284 12.881,-5.785 17.853,-6.921c10.759,-2.46 16.997,0.062 18.632,11.215c0.655,4.475 -4.924,16.856 0.417,18.837c5.828,2.162 10.944,-4.956 8.86,-12.413c-2.325,-8.32 -14.781,-18.86 -6.234,-20.546c3.914,-0.773 8.081,4.913 11.809,3.834c4.873,-1.41 6.491,-8.754 11.357,-9.19c3.481,-0.312 6.094,2.956 8.658,1.728c3.956,-1.894 7.241,-8.595 9.107,-9.846c2.487,-1.666 4.177,2.447 4.085,5.585c-0.142,4.884 -3.469,10.654 -6.109,13.621c-9.771,10.977 1.827,18.009 5.21,9.307c2.312,-5.944 19.076,-154.963 19.076,-154.963l-140.592,4.17c0,0 11.06,109.117 14.786,137.268Z" style="fill:#dcdcdc;"/><path d="M50.347,40.103c0.76,-3.673 4.687,7.276 14.877,9.384c10.19,2.108 31.17,3.24 30.496,4.516c-0.673,1.275 -24.347,5.244 -34.537,3.136c-10.19,-2.108 -11.596,-13.363 -10.836,-17.036Z" style="fill:#bfbfbf;"/><path d="M176.706,65.089c0.711,4.035 -1.464,7.796 -17.189,10.57c-15.725,2.775 -43.108,1.601 -54.163,-5.667c9.743,0.444 27.589,2.02 43.314,-0.754c15.725,-2.774 27.326,-8.184 28.038,-4.149Z" style="fill:#bfbfbf;"/></g><path d="M184.861,62.896c-55.278,20.567 -80.077,30.978 -150.317,34.134c-3.26,24.429 2.524,46.97 10.814,58.781c46.201,0.411 87.632,-5.436 135.387,-27.85c11.323,-20.531 8.614,-57.129 4.116,-65.065Z" style="fill:#ccc;"/><clipPath id="_clip4"><path d="M184.861,62.896c-55.278,20.567 -80.077,30.978 -150.317,34.134c-3.26,24.429 2.524,46.97 10.814,58.781c46.201,0.411 87.632,-5.436 135.387,-27.85c11.323,-20.531 8.614,-57.129 4.116,-65.065Z"/></clipPath><g clip-path="url(#_clip4)"><path d="M69.056,146.152c0.017,0.796 -0.43,1.24 -1.119,1.275c-0.187,0.009 -0.399,-0.004 -0.613,-0.063c-0.107,-0.03 -0.212,-0.037 -0.306,-0.032c-0.421,0.021 -0.638,0.349 -0.621,0.688c0.031,0.619 0.616,0.836 1.574,0.787c1.379,-0.069 2.494,-0.957 2.414,-2.558c-0.001,-0.023 -0.003,-0.058 -0.004,-0.082c-0.068,-0.875 -0.11,-1.716 -0.151,-2.523c-0.057,-1.133 -0.1,-2.221 -0.119,-3.298c0,-0.011 0,-0.011 -0.001,-0.023c-0.019,-0.386 -0.367,-0.556 -0.706,-0.539c-0.526,0.027 -0.697,0.352 -0.67,0.655c0.098,1.026 0.161,2.042 0.213,3.082c0.043,0.853 0.075,1.719 0.109,2.631ZM78.104,148.195c1.715,-0.137 3.485,-1.498 3.225,-4.036c-0.07,-0.734 -0.134,-1.386 -0.186,-2.051c-0.061,-0.758 -0.112,-1.552 -0.165,-2.522c-0.001,-0.012 -0.001,-0.012 -0.002,-0.024c-0.032,-0.396 -0.386,-0.568 -0.724,-0.541c-0.233,0.019 -0.681,0.148 -0.627,0.672c0.051,0.501 0.103,1.013 0.144,1.526c0.082,1.027 0.141,2.067 0.221,3.081c0.126,1.587 -0.939,2.505 -2.036,2.592c-1.061,0.084 -2.171,-0.591 -2.295,-2.154l-0.038,-0.478c-0.075,-0.945 -0.175,-1.899 -0.251,-2.856c-0.036,-0.455 -0.06,-0.911 -0.085,-1.366c-0.001,-0.012 -0.001,-0.012 -0.001,-0.024c-0.032,-0.396 -0.386,-0.568 -0.713,-0.542c-0.466,0.037 -0.666,0.335 -0.627,0.672c0.077,0.675 0.133,1.375 0.189,2.086c0.068,0.852 0.136,1.715 0.189,2.532c0.002,0.023 0.003,0.035 0.005,0.058c0.194,2.438 2.028,3.513 3.777,3.375ZM86.962,146.616c-0.174,-1.429 -0.345,-2.941 -0.498,-4.395c-0.119,-1.129 -0.223,-2.224 -0.302,-3.192c-0.001,-0.012 -0.001,-0.012 -0.002,-0.024c-0.041,-0.384 -0.409,-0.533 -0.747,-0.497c-0.209,0.022 -0.719,0.205 -0.645,0.691c0.135,0.939 0.27,1.996 0.386,3.101c0.159,1.501 0.288,3.064 0.412,4.463l0.001,0.012c0.043,0.407 0.414,0.58 0.764,0.543c0.349,-0.037 0.676,-0.283 0.633,-0.691l-0.002,-0.011ZM98.39,144.047c-0.052,-0.395 -0.482,-0.692 -0.876,-0.639c-0.209,0.027 -0.395,0.135 -0.528,0.377c-0.391,0.701 -1.216,1.153 -2.098,1.27c-2.447,0.326 -3.305,-1.779 -3.435,-2.754c-0.208,-1.565 0.614,-3.374 2.574,-3.635c0.731,-0.097 1.497,0.072 2.023,0.569c0.203,0.197 0.425,0.262 0.633,0.234c0.372,-0.049 0.665,-0.419 0.612,-0.813c-0.083,-0.626 -1.478,-1.527 -3.322,-1.282c-2.83,0.377 -4.191,2.836 -3.878,5.191c0.301,2.261 2.141,4.201 5.029,3.816c2.134,-0.283 3.346,-1.731 3.266,-2.334ZM105.245,136.941c0.438,-0.074 0.629,-0.426 0.576,-0.737c-0.05,-0.3 -0.306,-0.554 -0.749,-0.503c-0.175,0.017 -0.811,0.112 -1.469,0.223c-0.646,0.108 -1.302,0.23 -1.508,0.276c-0.927,0.204 -1.446,0.789 -1.314,1.716c0.099,0.731 0.351,2.302 0.588,3.71c0.157,0.935 0.3,1.789 0.404,2.269c0.217,1.008 0.939,1.279 2.014,1.181c0.152,-0.014 0.823,-0.114 1.481,-0.225c0.669,-0.112 1.337,-0.236 1.485,-0.273c0.492,-0.106 0.67,-0.457 0.618,-0.768c-0.05,-0.3 -0.318,-0.552 -0.722,-0.484c-0.023,0.004 -0.034,0.006 -0.057,0.01c-0.218,0.048 -0.954,0.184 -1.635,0.298c-1.627,0.273 -1.816,0.281 -1.963,-0.24c-0.056,-0.192 -0.112,-0.456 -0.4,-2.175c-0.041,-0.243 0.072,-0.274 1.503,-0.514c0.439,-0.073 0.879,-0.136 1.172,-0.161c0.023,-0.004 0.046,-0.008 0.057,-0.01c0.404,-0.067 0.558,-0.425 0.501,-0.76c-0.005,-0.035 -0.108,-0.646 -0.748,-0.503c-0.206,0.046 -0.76,0.139 -1.291,0.228c-1.419,0.239 -1.431,0.241 -1.47,0.01c-0.1,-0.671 -0.207,-1.235 -0.23,-1.516c-0.049,-0.502 0.189,-0.565 1.343,-0.759c0.785,-0.132 1.814,-0.293 1.814,-0.293ZM118.863,139.744c0.389,-0.084 0.514,-0.446 0.445,-0.766c-0.069,-0.321 -0.33,-0.587 -0.707,-0.506c-0.012,0.002 -0.012,0.002 -0.023,0.005c-0.547,0.13 -1.162,0.274 -1.757,0.402c-0.48,0.104 -0.951,0.194 -1.354,0.269c-0.012,0.002 -0.012,0.002 -0.023,0.005c-0.355,0.076 -0.469,0.436 -0.402,0.745c0.059,0.274 0.303,0.628 0.721,0.514c0.464,-0.124 0.805,-0.209 1.148,-0.283c0.504,-0.109 1.012,-0.194 1.941,-0.383l0.011,-0.002ZM134.004,135.618c-0.283,-1.051 -1.199,-1.846 -2.444,-1.608c-0.127,0.022 -0.179,0.012 -0.182,0.001c-0.006,-0.023 0.056,-0.064 0.163,-0.117c0.76,-0.326 1.1,-1.314 0.869,-2.173c-0.255,-0.949 -1.224,-1.754 -3.133,-1.374c-0.172,0.034 -0.413,0.087 -0.661,0.154c-0.961,0.258 -2.209,0.619 -1.862,2.04c0.172,0.729 0.574,2.269 0.945,3.648c0.246,0.915 0.475,1.762 0.625,2.231c0.425,1.4 1.737,1.095 2.833,0.8c0.282,-0.076 0.573,-0.166 0.717,-0.217c1.924,-0.639 2.456,-2.176 2.13,-3.385ZM131.609,137.838c-0.212,0.069 -0.491,0.157 -0.751,0.227c-1.051,0.283 -1.2,0.177 -1.369,-0.225c-0.116,-0.296 -0.256,-0.816 -0.637,-2.229c-0.06,-0.226 0.032,-0.287 1.083,-0.57c0.282,-0.076 0.579,-0.143 0.868,-0.197c1.061,-0.201 1.689,0.333 1.868,1c0.204,0.757 -0.14,1.685 -1.062,1.994ZM144.237,134.61c-0.03,-0.1 -0.087,-0.206 -0.166,-0.304c-0.637,-0.759 -3.284,-4.207 -4.617,-6.002c-0.333,-0.448 -0.851,-0.583 -1.277,-0.453c-0.402,0.123 -0.733,0.482 -0.754,1.051c-0.34,7.643 -0.346,7.742 -0.284,7.944c0.106,0.347 0.496,0.46 0.809,0.364c0.269,-0.083 0.481,-0.307 0.486,-0.651c0.003,-0.588 0.014,-1.473 0.023,-2.442c0.002,-0.074 0.047,-0.125 0.103,-0.142c0.232,-0.083 0.981,-0.313 1.653,-0.518c0.503,-0.155 0.962,-0.295 1.144,-0.339c0.067,-0.02 0.111,0.003 0.154,0.063c0.666,0.935 1.231,1.74 1.464,2.024c0.201,0.256 0.508,0.297 0.765,0.218c0.347,-0.106 0.614,-0.432 0.497,-0.813ZM66.744,117.865c-0.7,-0.082 -1.523,-0.069 -2.426,0.036c-1.278,2.911 -2.578,6.127 -3.784,9.467c-0.143,0.444 -0.443,0.508 -0.729,0.137c-0.664,-0.823 -1.139,-2.051 -0.454,-4.747c0.243,-0.885 0.788,-2.443 1.532,-4.275c-3.13,0.605 -6.421,1.395 -8.453,1.534c-1.157,2.772 -2.302,5.717 -3.358,8.7c-0.143,0.444 -0.48,0.597 -0.766,0.226c-0.711,-0.864 -1.096,-2.054 -0.541,-4.741c0.197,-0.926 0.826,-2.533 1.557,-4.537c-0.981,-0.368 -1.368,-0.949 -1.564,-1.283c-0.295,-0.502 -0.221,-0.68 0.517,-0.687c0.652,-0.001 1.263,0.044 1.825,0.005c2.374,-5.939 5.883,-13.694 7.485,-16.323c0.353,-0.545 0.748,-0.485 1.04,-0.027c0.732,1.166 0.747,3.293 -0.643,6.472c-1.088,2.507 -2.651,5.698 -4.308,9.417c2.956,-0.593 5.587,-1.512 8.428,-1.88c2.429,-5.769 5.764,-12.904 7.337,-15.313c0.394,-0.592 0.786,-0.575 1.084,-0.031c0.691,1.212 0.7,3.253 -0.894,6.62c-1.138,2.423 -2.626,5.435 -4.254,8.935c0.897,0.319 1.445,0.896 1.717,1.521c0.049,-0.1 0.098,-0.2 0.149,-0.3c2.819,-5.524 5.962,-7.901 8.11,-8.182c1.848,-0.241 2.892,1.065 3.025,2.752c0.424,-1.104 0.822,-2.074 1.205,-2.823c0.314,-0.609 0.646,-0.74 0.998,-0.392c0.745,0.689 1.33,2.492 0.579,4.775c-0.693,2.057 -2.421,5.561 -3.155,7.973c-0.76,2.546 -0.562,4.4 0.888,4.123c0.183,-0.033 0.368,-0.098 0.554,-0.191c1.777,-6.126 4.735,-14.507 6.238,-17.399c0.335,-0.626 0.734,-0.605 1.033,-0.127c0.306,0.52 0.498,1.147 0.575,1.881c1.612,-1.936 3.936,-3.551 6.093,-1.932c2.414,1.84 2.104,5.801 1.103,9.569c-0.815,3.034 -2.056,5.349 -3.518,6.601c1.354,-0.31 2.484,-0.893 3.424,-1.645c1.656,-6.1 4.296,-14.097 5.687,-16.926c0.321,-0.633 0.721,-0.621 1.03,-0.15c0.317,0.514 0.523,1.136 0.617,1.868c1.569,-1.971 3.856,-3.637 6.049,-2.067c2.454,1.787 2.231,5.754 1.314,9.543c-0.747,3.051 -1.937,5.393 -3.371,6.677c2.047,-0.517 3.565,-1.651 4.674,-3.047c-0.28,-1.008 -0.293,-2.235 -0.122,-3.447c0.397,-2.906 1.648,-7.527 3.654,-11.899c0.248,-0.535 0.681,-0.577 1.063,-0.211c1.29,1.159 1.388,2.995 0.311,5.814c-1.043,2.769 -1.633,4.697 -2.046,6.855c-0.438,2.251 -0.059,3.722 0.936,3.614c1.683,-0.201 3.271,-3.342 4.707,-7.469c1.206,-3.508 2.277,-7.696 3.336,-10.158c0.273,-0.628 0.554,-0.772 1.004,-0.508c0.747,0.648 1.448,2.408 0.772,4.795c-0.788,2.718 -2.372,8.332 -3.342,12.809c2.963,-2.441 4.992,-5.36 6.23,-8.035c0.154,-0.34 0.528,-0.458 0.697,-0.049c0.161,0.365 0.226,1.368 -0.278,2.617c-1.136,2.963 -3.793,5.167 -7.035,7.311c-1.254,6.167 -2.918,13.609 -6.178,15.667c-0.749,0.458 -1.556,0.617 -2.6,-0.413c-1.102,-1.107 -2.247,-2.427 -1.893,-5.103c0.519,-4.079 3.628,-7.344 7.509,-9.835c0.231,-1.062 0.446,-2.209 0.712,-3.321c-1.049,1.621 -2.446,3.046 -4.171,3.254c-1.272,0.144 -2.14,-0.287 -2.694,-1.051c-0.978,1.432 -2.302,2.303 -4.262,2.816c-2.694,0.684 -4.554,0.638 -6.302,-0.444c-1.047,-0.64 -1.657,-1.539 -1.986,-2.58c-1.311,4.04 -2.663,8.793 -3.816,13.906c-0.098,0.415 -0.38,0.557 -0.708,0.222c-0.807,-0.774 -1.245,-1.926 -0.926,-4.677c0.117,-1.021 0.457,-2.614 0.937,-4.508c-0.6,0.359 -1.256,0.631 -1.972,0.802c-2.708,0.624 -4.567,0.537 -6.291,-0.583c-1.032,-0.663 -1.622,-1.576 -1.928,-2.623c-1.4,4.009 -2.857,8.732 -4.123,13.817c-0.107,0.413 -0.392,0.549 -0.713,0.206c-0.79,-0.791 -1.202,-1.953 -0.822,-4.695c0.134,-0.985 0.49,-2.498 0.984,-4.298c-0.079,0.012 -0.16,0.021 -0.241,0.027c-2.338,0.174 -3.72,-1.044 -3.984,-3.064c-1.145,1.941 -2.871,3.784 -4.934,4.053c-3.743,0.488 -5.321,-4.174 -3.134,-9.421ZM129.475,131.53c0.994,-0.268 1.546,0.117 1.689,0.648c0.161,0.599 -0.189,1.372 -0.99,1.636c-0.2,0.066 -0.494,0.145 -0.765,0.218c-0.746,0.201 -0.904,0.243 -0.968,0.006c-0.165,-0.658 -0.35,-1.299 -0.4,-1.577c-0.082,-0.438 0.12,-0.589 0.843,-0.784c0.294,-0.079 0.591,-0.147 0.591,-0.147ZM151.091,131.43c1.217,1.076 2.135,0.794 2.311,0.733c0.487,-0.17 0.596,-0.567 0.481,-0.898c-0.108,-0.31 -0.41,-0.539 -0.802,-0.453c-0.391,0.087 -0.718,-0.035 -1.152,-0.392c-0.602,-0.484 -1.146,-1.05 -1.895,-1.459c-0.108,-0.061 -0.205,-0.09 -0.22,-0.134c-0.012,-0.033 0.018,-0.056 0.087,-0.105c0.926,-0.545 1.222,-1.688 0.891,-2.639c-0.361,-1.038 -1.467,-1.831 -3.3,-1.33c-0.169,0.047 -0.427,0.124 -0.681,0.213c-0.929,0.323 -2.189,0.761 -1.73,2.187c0.147,0.457 0.162,0.501 0.993,2.888c0.423,1.216 0.88,2.531 1.204,3.571c0.004,0.011 0.004,0.011 0.008,0.022c0.127,0.364 0.491,0.448 0.789,0.345c0.321,-0.112 0.572,-0.422 0.441,-0.835c-0.139,-0.398 -0.802,-2.199 -1.091,-3.028c-0.069,-0.199 0.082,-0.263 0.292,-0.336c0.21,-0.074 0.468,-0.151 0.612,-0.201c0.534,-0.173 1.628,0.871 2.762,1.851ZM116.748,121.956c-1.399,6.77 -3.969,12.094 -4.681,11.395c-0.976,-0.911 -0.215,-7.114 4.681,-11.395ZM140.656,131.987c0.01,0.034 -0.009,0.052 -0.076,0.072c-0.157,0.048 -0.545,0.179 -0.947,0.303c-0.392,0.12 -0.809,0.235 -1.033,0.304c-0.067,0.02 -0.097,0.005 -0.11,-0.04c-0.031,-0.101 0.055,-2.416 0.086,-2.915c0.01,-0.247 0.046,-0.369 0.102,-0.386c0.067,-0.02 0.157,0.075 0.286,0.255c0.347,0.494 0.995,1.409 1.664,2.354c0.018,0.019 0.024,0.042 0.028,0.053ZM148.689,128.301c-0.195,0.081 -0.478,0.192 -0.754,0.288c-0.774,0.269 -0.921,0.308 -0.998,0.087c-0.212,-0.645 -0.496,-1.426 -0.566,-1.699c-0.148,-0.531 0.238,-0.702 0.835,-0.91c0.21,-0.073 0.409,-0.142 0.557,-0.181c0.98,-0.279 1.589,0.116 1.781,0.669c0.207,0.597 -0.064,1.385 -0.855,1.746ZM75.507,118.51c-1.698,4.067 -3.574,7.109 -5.341,7.296c-1.682,0.176 -1.617,-3.679 0.179,-7.671c1.864,-4.133 4.636,-7.336 6.028,-7.386c1.263,-0.034 1.224,2.681 -0.866,7.761ZM85.397,116.568c0.364,-0.983 0.707,-1.831 1.049,-2.678c1.464,-3.625 3.761,-6.202 4.872,-5.859c1.153,0.336 1.271,3.962 0.171,7.659c-1.329,4.437 -3.591,8.018 -5.143,7.134c-1.36,-0.785 -1.572,-3.386 -0.949,-6.256ZM99.997,113.993c0.342,-0.991 0.666,-1.846 0.99,-2.701c1.383,-3.656 3.621,-6.283 4.74,-5.965c1.161,0.31 1.359,3.933 0.341,7.653c-1.231,4.466 -3.412,8.097 -4.984,7.246c-1.377,-0.754 -1.646,-3.349 -1.087,-6.233ZM136.821,91.008c-2.126,6.959 -4.385,16.326 -4.681,20.345c-0.202,2.829 0.567,4.062 1.539,4.525c0.359,0.175 0.611,0.109 0.669,-0.354c0.483,-3.127 1.215,-6.676 1.999,-10.195c2.237,-1.21 5.302,-2.682 7.409,-3.186c0.503,-0.132 0.522,-0.405 0.297,-0.75c-0.705,-1.159 -1.983,-1.767 -4.047,-1.094c-0.744,0.239 -1.686,0.574 -2.722,1.068c1.07,-4.31 2.155,-8.22 3,-10.993c2.459,-1.045 5.176,-2.649 8.332,-3.427c0.545,-0.143 0.552,-0.458 0.339,-0.761c-0.884,-1.157 -2.193,-1.712 -3.997,-1.241c-2.348,0.612 -6.476,2.988 -10,3.728c-0.419,0.109 -0.501,0.31 -0.33,0.623c0.429,0.784 1.109,1.502 2.193,1.712ZM166.385,92.707c-0.064,-5.932 1.157,-12.039 2.811,-16.423c0.324,-0.893 0.848,-1.212 1.627,-0.933c1.6,0.54 2.471,1.911 2.796,3.988c0.866,5.428 -1.544,12.121 -4.098,15.951c0.081,4.586 1.061,8.08 2.921,7.47c1.98,-0.66 3.538,-4.724 3.776,-8.456c0.057,-0.638 0.478,-0.866 0.876,-0.376c0.473,0.551 0.689,1.496 0.661,2.64c-0.045,1.434 -1.534,5.986 -4.755,7.273c-1.67,0.66 -3.165,0.463 -4.293,-0.817c-1.035,2.085 -2.758,3.604 -5.185,4.509c-2.37,0.891 -4.415,0.429 -5.859,-0.934c-1.306,2.116 -3.365,3.89 -5.733,4.632c-5.248,1.659 -8.627,-2.985 -7.529,-9.148c1.098,-6.163 4.688,-9.588 7.124,-9.004c1.224,0.312 2.157,0.712 3.095,1.426c1.045,0.774 1.47,3.406 0.359,6.044c-1.29,3.1 -3.749,5.011 -7.363,3.513c-0.187,4.217 1.592,6.535 3.83,6.002c2.305,-0.57 3.976,-2.602 5.124,-4.859c-0.951,-1.634 -1.367,-3.874 -1.054,-6.405c0.767,-6.213 4.168,-9.825 6.632,-9.372c1.239,0.247 2.193,0.596 3.167,1.26c0.5,0.33 0.89,1.062 1.07,2.019ZM166.456,94.684c-0.064,0.647 -0.212,1.331 -0.46,2.02c-1.122,3.164 -3.476,5.203 -7.164,3.901c0.038,4.221 1.938,6.44 4.144,5.788c2.207,-0.672 3.743,-2.691 4.769,-4.929c-0.304,-0.691 -0.556,-1.52 -0.75,-2.497c-0.274,-1.384 -0.449,-2.822 -0.539,-4.283ZM147.717,103.037c0.021,-0.233 0.071,-0.519 0.121,-0.805c0.772,-4.528 3.474,-8.049 4.557,-7.604c0.718,0.283 0.45,2.715 -0.358,4.856c-0.732,1.938 -1.901,4.232 -4.32,3.553ZM158.877,99.575c0.009,-0.233 0.044,-0.521 0.078,-0.81c0.53,-4.563 3.04,-8.223 4.145,-7.836c0.732,0.244 0.594,2.687 -0.098,4.868c-0.628,1.974 -1.673,4.327 -4.125,3.778ZM169.503,93.27c0.006,-0.757 0.051,-1.531 0.136,-2.322c0.561,-6.276 1.612,-11.961 2.267,-11.865c0.654,0.097 1.157,7.426 -2.403,14.187Z" style="fill:#fff;"/></g><path d="M109.476,163.118c0,0 -2.639,6.081 -3.36,8.173c-0.411,1.194 -0.818,4.294 1.643,5.113c3.321,1.104 4.421,-4.33 4.409,-5.568c-0.027,-2.872 -0.887,-5.504 -2.692,-7.718Z" style="fill:#dcdcdc;"/><path d="M120.48,16.344c6.455,-5.222 15.561,-7.898 17.307,-6.83c1.866,1.142 -3.865,14.758 -9.311,20.314c-6.833,6.973 -28.196,7.348 -34.989,0.004c-5.305,-5.735 -10.705,-19.281 -9.249,-20.318c1.328,-0.945 13.534,1.161 18.754,6.83c4.111,-7.961 14.907,-15.838 17.488,-14.809c2.049,0.817 1.758,7.836 0,14.809Z" style="fill:#999;"/></g></svg>