<?xml version="1.0" standalone="no"?><!DOCTYPE svg PUBLIC "-//W3C//DTD SVG 1.1//EN" "http://www.w3.org/Graphics/SVG/1.1/DTD/svg11.dtd"><svg width="100%" height="100%" viewBox="0 0 501 550" version="1.1" xmlns="http://www.w3.org/2000/svg" xmlns:xlink="http://www.w3.org/1999/xlink" xml:space="preserve" style="fill-rule:evenodd;clip-rule:evenodd;stroke-linejoin:round;stroke-miterlimit:1.41421;"><g><g><path d="M154.545,240.368c-1.766,2.829 -28.454,-1.975 -66.819,24.573l43.342,27.332l-13.914,52.688c21.404,-13.142 35.398,-17.051 58.829,-19.298l-5.625,-72.78l-15.813,-12.515Z" style="fill:#5da038;"/><clipPath id="_clip1"><path d="M154.545,240.368c-1.766,2.829 -28.454,-1.975 -66.819,24.573l43.342,27.332l-13.914,52.688c21.404,-13.142 35.398,-17.051 58.829,-19.298l-5.625,-72.78l-15.813,-12.515Z"/></clipPath><g clip-path="url(#_clip1)"><path d="M179.783,300.963l2.536,-31.844l-28.979,20.038c7.28,7.074 19.182,9.249 26.443,11.806Z" style="fill:#2f631c;"/></g><path d="M340.41,214.486c19.206,-12.573 42.395,-17.234 69.729,-14.372l-36.469,-38.413l19.258,-45.091c-26.947,-2.437 -50.696,1.366 -69.729,14.372l17.211,83.504Z" style="fill:#5da038;"/><clipPath id="_clip2"><path d="M340.41,214.486c19.206,-12.573 42.395,-17.234 69.729,-14.372l-36.469,-38.413l19.258,-45.091c-26.947,-2.437 -50.696,1.366 -69.729,14.372l17.211,83.504Z"/></clipPath><g clip-path="url(#_clip2)"><path d="M359.637,151.753c-8.787,-6.274 -18.978,-8.668 -30.332,-7.849l6.422,27.468l23.91,-19.619Z" style="fill:#2f631c;"/></g><clipPath id="_clip3"><path d="M333.566,257.548c0.003,0.005 0.192,0.5 -4.156,47.307c-1.405,15.128 -3.284,35.094 -5.796,61.445c-1.595,16.72 -32.666,30.433 -72.901,30.433c-40.235,0 -71.316,-13.711 -72.9,-30.433c-10.271,-108.418 -9.953,-108.752 -9.953,-108.752c-4.233,-46.38 -7.361,-84.497 -7.391,-87.347c-0.675,-64.278 39.631,-75.957 89.424,-76.48c49.792,-0.523 90.335,10.307 91.01,74.585c0.045,4.268 -0.655,18.85 -7.337,89.242l0,0Z"/></clipPath><g clip-path="url(#_clip3)"><path d="M177.802,367.141c-0.659,-7.996 -2.654,-20.906 -2.654,-20.906c0,0 -10.806,-28.845 28.032,-15.474c14.02,4.827 27.186,15.882 31.691,8.836c1.301,-2.036 -0.857,-10.48 -4.044,-14.824c-3.496,-4.765 -8.183,-5.719 -10.369,-10.465c-1.275,-2.769 -0.324,-8.415 4.262,-8.576c8.38,-0.294 13.437,9.588 13.756,18.019c0.413,10.906 -1.875,13.235 2.263,19.128c6.151,8.759 41.283,-0.338 54.282,-6.379c43.692,-20.304 32.628,-5.739 32.628,-5.739c0,0 -3.987,35.815 -4.046,36.38c-1.644,15.707 -32.665,28.596 -72.9,28.596c-40.235,0 -71.604,-12.86 -72.901,-28.596Z" style="fill:#f8941d;"/><path d="M177.813,366.3c-0.659,-8.51 -2.676,-22.618 -2.676,-22.618c0,0 18.587,17.074 44.53,20.982c57.449,8.653 108.237,-38.231 108.237,-38.231c0,0 -4.231,39.266 -4.29,39.867c-1.644,16.715 -32.666,30.433 -72.901,30.433c-40.235,0 -71.604,-13.687 -72.9,-30.433Z" style="fill:#fdb912;"/><path d="M170.07,290.538c2.104,15.895 -4.91,54.152 11.193,46.781c2.006,-0.918 4.602,-4.705 0,-12.474c-2.765,-4.669 -6.827,-14.477 -5.977,-20.035c0.579,-3.787 2.144,-6.877 4.894,-8.035c10.02,-4.219 14.447,6.891 24.029,6.058c4.822,-0.42 19.049,-8.554 26.401,-10.235c15.911,-3.637 25.136,0.092 27.552,16.585c0.97,6.618 -7.281,24.927 0.617,27.857c8.619,3.197 16.184,-7.329 13.103,-18.357c-3.439,-12.304 -21.859,-27.89 -9.22,-30.384c5.79,-1.142 11.951,7.266 17.465,5.67c7.206,-2.086 9.598,-12.946 16.795,-13.591c5.147,-0.461 9.011,4.372 12.802,2.557c5.851,-2.802 10.709,-12.71 13.469,-14.561c3.677,-2.464 6.176,3.619 6.041,8.259c-0.21,7.223 -5.131,15.755 -9.036,20.142c-14.449,16.234 2.702,26.633 7.706,13.764c3.418,-8.79 28.209,-229.161 28.209,-229.161l-207.908,6.168c0,0 16.355,161.363 21.865,202.992Z" style="fill:#fdb912;"/><path d="M160.717,118.047c1.124,-5.432 6.931,10.759 22,13.877c15.069,3.117 46.094,4.792 45.098,6.678c-0.995,1.886 -36.004,7.755 -51.073,4.637c-15.069,-3.117 -17.148,-19.76 -16.025,-25.192Z" style="fill:#f8941d;"/><path d="M347.577,154.997c1.053,5.966 -2.164,11.528 -25.419,15.631c-23.254,4.103 -63.749,2.367 -80.096,-8.381c14.407,0.656 40.799,2.988 64.053,-1.115c23.255,-4.103 40.41,-12.102 41.462,-6.135Z" style="fill:#f8941d;"/></g><path d="M359.637,151.753c-81.745,30.416 -118.418,45.812 -222.29,50.478c-4.821,36.126 3.733,69.46 15.993,86.926c68.322,0.607 129.59,-8.039 200.211,-41.184c16.745,-30.361 12.738,-84.484 6.086,-96.22Z" style="fill:#5da038;"/><clipPath id="_clip4"><path d="M359.637,151.753c-81.745,30.416 -118.418,45.812 -222.29,50.478c-4.821,36.126 3.733,69.46 15.993,86.926c68.322,0.607 129.59,-8.039 200.211,-41.184c16.745,-30.361 12.738,-84.484 6.086,-96.22Z"/></clipPath><g clip-path="url(#_clip4)"><path d="M188.384,274.873c0.024,1.177 -0.636,1.834 -1.655,1.885c-0.277,0.014 -0.59,-0.005 -0.906,-0.093c-0.158,-0.044 -0.314,-0.053 -0.453,-0.046c-0.622,0.031 -0.944,0.515 -0.919,1.016c0.046,0.916 0.911,1.236 2.328,1.165c2.04,-0.102 3.689,-1.415 3.57,-3.783c-0.002,-0.035 -0.004,-0.086 -0.006,-0.121c-0.1,-1.294 -0.162,-2.539 -0.222,-3.731c-0.085,-1.677 -0.148,-3.285 -0.176,-4.877c-0.001,-0.017 -0.001,-0.017 -0.002,-0.035c-0.029,-0.57 -0.544,-0.821 -1.045,-0.796c-0.778,0.039 -1.031,0.52 -0.991,0.968c0.146,1.517 0.239,3.02 0.316,4.558c0.063,1.262 0.11,2.541 0.161,3.89ZM201.765,277.894c2.536,-0.201 5.153,-2.214 4.768,-5.968c-0.103,-1.085 -0.197,-2.05 -0.275,-3.033c-0.089,-1.121 -0.165,-2.296 -0.244,-3.73c-0.002,-0.017 -0.002,-0.017 -0.003,-0.035c-0.047,-0.586 -0.57,-0.84 -1.07,-0.8c-0.345,0.028 -1.007,0.219 -0.928,0.994c0.076,0.74 0.153,1.498 0.214,2.257c0.12,1.518 0.208,3.056 0.327,4.556c0.186,2.346 -1.39,3.704 -3.011,3.832c-1.57,0.125 -3.212,-0.873 -3.395,-3.184l-0.056,-0.708c-0.111,-1.397 -0.258,-2.808 -0.37,-4.223c-0.054,-0.673 -0.09,-1.347 -0.126,-2.021c-0.001,-0.017 -0.001,-0.017 -0.003,-0.034c-0.046,-0.587 -0.57,-0.84 -1.053,-0.802c-0.69,0.055 -0.985,0.495 -0.928,0.994c0.114,0.997 0.196,2.032 0.28,3.085c0.1,1.259 0.201,2.535 0.28,3.744c0.003,0.035 0.004,0.052 0.007,0.086c0.286,3.605 2.998,5.195 5.586,4.99ZM214.864,275.559c-0.257,-2.113 -0.511,-4.348 -0.738,-6.499c-0.176,-1.669 -0.329,-3.289 -0.445,-4.721c-0.002,-0.017 -0.002,-0.017 -0.004,-0.034c-0.06,-0.568 -0.605,-0.789 -1.104,-0.736c-0.31,0.032 -1.064,0.303 -0.954,1.023c0.199,1.388 0.399,2.95 0.571,4.585c0.234,2.22 0.426,4.531 0.609,6.6l0.002,0.017c0.064,0.602 0.612,0.858 1.129,0.803c0.516,-0.054 1,-0.418 0.936,-1.021l-0.002,-0.017ZM231.763,271.76c-0.077,-0.583 -0.712,-1.023 -1.295,-0.945c-0.309,0.041 -0.584,0.2 -0.781,0.558c-0.578,1.036 -1.798,1.705 -3.102,1.878c-3.619,0.482 -4.888,-2.631 -5.08,-4.072c-0.308,-2.315 0.907,-4.991 3.806,-5.376c1.081,-0.144 2.214,0.107 2.992,0.841c0.301,0.292 0.628,0.388 0.937,0.347c0.548,-0.073 0.982,-0.62 0.904,-1.203c-0.123,-0.926 -2.185,-2.258 -4.912,-1.895c-4.186,0.557 -6.198,4.193 -5.735,7.675c0.445,3.345 3.165,6.213 7.436,5.645c3.156,-0.42 4.949,-2.561 4.83,-3.453ZM241.901,261.252c0.648,-0.109 0.929,-0.63 0.852,-1.09c-0.075,-0.444 -0.454,-0.819 -1.108,-0.744c-0.259,0.026 -1.2,0.166 -2.173,0.329c-0.955,0.161 -1.925,0.341 -2.23,0.41c-1.37,0.3 -2.137,1.166 -1.942,2.537c0.146,1.081 0.519,3.404 0.868,5.486c0.232,1.382 0.444,2.645 0.599,3.356c0.32,1.491 1.387,1.89 2.978,1.746c0.224,-0.02 1.217,-0.169 2.19,-0.332c0.989,-0.167 1.976,-0.35 2.195,-0.404c0.728,-0.158 0.992,-0.676 0.915,-1.136c-0.075,-0.444 -0.471,-0.816 -1.068,-0.716c-0.034,0.006 -0.051,0.009 -0.085,0.014c-0.322,0.072 -1.411,0.272 -2.418,0.441c-2.406,0.404 -2.685,0.416 -2.902,-0.355c-0.083,-0.284 -0.165,-0.674 -0.592,-3.216c-0.061,-0.359 0.107,-0.404 2.223,-0.76c0.649,-0.108 1.3,-0.2 1.732,-0.238c0.035,-0.005 0.069,-0.011 0.086,-0.014c0.597,-0.1 0.824,-0.63 0.741,-1.125c-0.009,-0.051 -0.161,-0.955 -1.108,-0.744c-0.304,0.069 -1.123,0.207 -1.908,0.338c-2.099,0.353 -2.116,0.356 -2.173,0.014c-0.149,-0.992 -0.307,-1.826 -0.342,-2.241c-0.072,-0.742 0.281,-0.837 1.988,-1.123c1.16,-0.195 2.682,-0.433 2.682,-0.433ZM262.039,265.397c0.575,-0.124 0.761,-0.659 0.659,-1.133c-0.102,-0.474 -0.488,-0.868 -1.047,-0.748c-0.017,0.004 -0.017,0.004 -0.033,0.007c-0.809,0.192 -1.719,0.406 -2.598,0.596c-0.711,0.153 -1.408,0.285 -2.003,0.396c-0.017,0.004 -0.017,0.004 -0.034,0.007c-0.525,0.114 -0.693,0.645 -0.595,1.102c0.088,0.406 0.449,0.93 1.067,0.761c0.686,-0.183 1.19,-0.309 1.698,-0.419c0.744,-0.16 1.496,-0.287 2.869,-0.565l0.017,-0.004ZM284.43,259.296c-0.418,-1.554 -1.774,-2.73 -3.615,-2.378c-0.188,0.033 -0.264,0.017 -0.268,0.001c-0.009,-0.034 0.082,-0.094 0.24,-0.173c1.125,-0.482 1.627,-1.943 1.285,-3.213c-0.377,-1.403 -1.809,-2.595 -4.632,-2.032c-0.255,0.051 -0.611,0.128 -0.978,0.227c-1.421,0.383 -3.266,0.915 -2.754,3.017c0.254,1.079 0.849,3.356 1.398,5.394c0.364,1.354 0.702,2.607 0.924,3.3c0.629,2.07 2.568,1.62 4.189,1.184c0.418,-0.113 0.848,-0.247 1.061,-0.322c2.845,-0.945 3.631,-3.217 3.15,-5.005ZM280.888,262.579c-0.313,0.102 -0.727,0.231 -1.111,0.335c-1.554,0.418 -1.775,0.262 -2.025,-0.333c-0.171,-0.438 -0.378,-1.207 -0.94,-3.295c-0.09,-0.334 0.046,-0.425 1.6,-0.843c0.418,-0.113 0.857,-0.213 1.284,-0.292c1.568,-0.297 2.498,0.493 2.763,1.478c0.301,1.12 -0.207,2.493 -1.571,2.95ZM299.563,257.805c-0.046,-0.149 -0.13,-0.304 -0.246,-0.449c-0.942,-1.123 -4.856,-6.222 -6.827,-8.876c-0.493,-0.663 -1.26,-0.863 -1.889,-0.67c-0.595,0.182 -1.084,0.712 -1.116,1.554c-0.502,11.302 -0.511,11.449 -0.419,11.747c0.157,0.513 0.733,0.68 1.196,0.538c0.397,-0.121 0.712,-0.453 0.719,-0.962c0.005,-0.87 0.02,-2.178 0.034,-3.611c0.002,-0.11 0.07,-0.185 0.153,-0.21c0.342,-0.123 1.45,-0.463 2.443,-0.767c0.745,-0.228 1.423,-0.436 1.693,-0.5c0.099,-0.03 0.164,0.004 0.227,0.093c0.985,1.382 1.82,2.573 2.166,2.992c0.297,0.38 0.75,0.44 1.13,0.324c0.513,-0.157 0.908,-0.64 0.736,-1.203ZM184.965,233.042c-1.035,-0.121 -2.252,-0.102 -3.588,0.053c-1.89,4.305 -3.813,9.061 -5.595,14.001c-0.212,0.657 -0.655,0.751 -1.078,0.202c-0.982,-1.218 -1.685,-3.032 -0.673,-7.02c0.361,-1.309 1.167,-3.613 2.266,-6.321c-4.628,0.894 -9.494,2.062 -12.499,2.267c-1.711,4.1 -3.405,8.455 -4.966,12.866c-0.212,0.657 -0.71,0.883 -1.133,0.334c-1.051,-1.277 -1.621,-3.037 -0.801,-7.011c0.292,-1.369 1.221,-3.745 2.303,-6.709c-1.45,-0.544 -2.023,-1.404 -2.313,-1.898c-0.436,-0.741 -0.326,-1.005 0.765,-1.016c0.964,-0.001 1.868,0.065 2.699,0.008c3.51,-8.783 8.7,-20.25 11.068,-24.138c0.523,-0.807 1.107,-0.718 1.539,-0.041c1.081,1.725 1.104,4.871 -0.952,9.572c-1.609,3.707 -3.92,8.426 -6.37,13.925c4.372,-0.877 8.262,-2.235 12.464,-2.779c3.592,-8.532 8.523,-19.083 10.849,-22.646c0.583,-0.875 1.162,-0.851 1.603,-0.046c1.022,1.793 1.035,4.811 -1.322,9.79c-1.682,3.584 -3.883,8.038 -6.291,13.213c1.327,0.473 2.138,1.326 2.54,2.25c0.071,-0.148 0.145,-0.295 0.22,-0.443c4.169,-8.171 8.816,-11.685 11.993,-12.1c2.733,-0.356 4.277,1.575 4.474,4.07c0.627,-1.633 1.215,-3.067 1.782,-4.175c0.464,-0.901 0.955,-1.094 1.475,-0.581c1.102,1.02 1.967,3.686 0.857,7.062c-1.025,3.042 -3.58,8.223 -4.666,11.79c-1.124,3.766 -0.831,6.507 1.313,6.098c0.27,-0.049 0.544,-0.145 0.82,-0.282c2.628,-9.061 7.002,-21.455 9.224,-25.73c0.496,-0.927 1.086,-0.895 1.528,-0.189c0.452,0.77 0.736,1.697 0.85,2.783c2.384,-2.864 5.821,-5.252 9.011,-2.858c3.569,2.721 3.111,8.579 1.631,14.151c-1.205,4.487 -3.042,7.909 -5.203,9.762c2.002,-0.459 3.674,-1.32 5.064,-2.433c2.449,-9.021 6.352,-20.846 8.41,-25.03c0.475,-0.937 1.065,-0.918 1.523,-0.222c0.469,0.759 0.773,1.68 0.912,2.763c2.32,-2.916 5.703,-5.38 8.945,-3.057c3.629,2.642 3.3,8.508 1.944,14.111c-1.105,4.513 -2.865,7.975 -4.985,9.875c3.027,-0.765 5.271,-2.442 6.912,-4.507c-0.415,-1.49 -0.433,-3.304 -0.181,-5.097c0.588,-4.297 2.437,-11.13 5.404,-17.596c0.366,-0.792 1.007,-0.853 1.572,-0.311c1.907,1.713 2.052,4.428 0.459,8.597c-1.542,4.094 -2.415,6.945 -3.025,10.137c-0.648,3.329 -0.087,5.504 1.384,5.344c2.489,-0.296 4.837,-4.942 6.961,-11.045c1.783,-5.187 3.367,-11.38 4.933,-15.022c0.404,-0.929 0.819,-1.142 1.485,-0.751c1.104,0.958 2.141,3.562 1.141,7.091c-1.165,4.02 -3.507,12.322 -4.941,18.943c4.381,-3.611 7.381,-7.928 9.212,-11.883c0.227,-0.502 0.781,-0.677 1.031,-0.073c0.237,0.541 0.335,2.024 -0.411,3.87c-1.68,4.383 -5.609,7.642 -10.404,10.812c-1.854,9.121 -4.315,20.125 -9.135,23.169c-1.108,0.676 -2.302,0.913 -3.845,-0.611c-1.63,-1.638 -3.323,-3.589 -2.799,-7.547c0.766,-6.031 5.364,-10.86 11.103,-14.543c0.343,-1.571 0.66,-3.267 1.053,-4.912c-1.551,2.397 -3.616,4.504 -6.168,4.813c-1.88,0.212 -3.165,-0.425 -3.984,-1.555c-1.446,2.118 -3.403,3.406 -6.303,4.164c-3.983,1.012 -6.735,0.944 -9.319,-0.656c-1.548,-0.947 -2.451,-2.276 -2.937,-3.815c-1.938,5.974 -3.938,13.003 -5.643,20.564c-0.145,0.614 -0.562,0.823 -1.047,0.327c-1.194,-1.144 -1.841,-2.848 -1.369,-6.915c0.172,-1.51 0.676,-3.866 1.385,-6.667c-0.886,0.531 -1.857,0.934 -2.916,1.186c-4.004,0.924 -6.754,0.795 -9.302,-0.862c-1.527,-0.981 -2.4,-2.33 -2.852,-3.879c-2.07,5.929 -4.226,12.913 -6.097,20.433c-0.159,0.611 -0.581,0.811 -1.054,0.305c-1.169,-1.171 -1.778,-2.888 -1.216,-6.944c0.199,-1.456 0.724,-3.694 1.455,-6.355c-0.117,0.017 -0.236,0.03 -0.357,0.039c-3.457,0.258 -5.501,-1.544 -5.891,-4.53c-1.693,2.87 -4.246,5.595 -7.296,5.993c-5.535,0.722 -7.869,-6.173 -4.635,-13.932ZM277.731,253.25c1.471,-0.396 2.287,0.173 2.498,0.959c0.239,0.885 -0.278,2.028 -1.463,2.418c-0.296,0.098 -0.731,0.215 -1.132,0.323c-1.103,0.297 -1.336,0.36 -1.431,0.009c-0.244,-0.974 -0.517,-1.922 -0.592,-2.332c-0.12,-0.648 0.178,-0.872 1.247,-1.16c0.435,-0.117 0.873,-0.217 0.873,-0.217ZM309.698,253.103c1.8,1.591 3.157,1.174 3.418,1.083c0.719,-0.25 0.881,-0.838 0.711,-1.328c-0.159,-0.458 -0.607,-0.797 -1.186,-0.669c-0.578,0.128 -1.062,-0.052 -1.703,-0.58c-0.891,-0.716 -1.695,-1.554 -2.803,-2.158c-0.16,-0.091 -0.303,-0.133 -0.326,-0.198c-0.017,-0.049 0.027,-0.082 0.13,-0.155c1.368,-0.806 1.806,-2.497 1.317,-3.902c-0.534,-1.537 -2.169,-2.708 -4.88,-1.967c-0.25,0.069 -0.632,0.183 -1.008,0.314c-1.373,0.478 -3.236,1.126 -2.557,3.235c0.217,0.675 0.239,0.741 1.467,4.271c0.626,1.798 1.302,3.742 1.782,5.279c0.006,0.017 0.006,0.017 0.011,0.033c0.188,0.539 0.726,0.664 1.167,0.51c0.474,-0.165 0.846,-0.624 0.652,-1.234c-0.205,-0.588 -1.186,-3.252 -1.613,-4.477c-0.102,-0.294 0.121,-0.39 0.432,-0.498c0.31,-0.108 0.692,-0.223 0.904,-0.297c0.79,-0.256 2.408,1.288 4.085,2.738ZM258.911,239.091c-2.069,10.013 -5.869,17.885 -6.922,16.853c-1.443,-1.348 -0.318,-10.521 6.922,-16.853ZM294.267,253.926c0.015,0.05 -0.013,0.076 -0.113,0.107c-0.231,0.071 -0.805,0.265 -1.401,0.447c-0.579,0.177 -1.196,0.348 -1.527,0.45c-0.099,0.03 -0.143,0.007 -0.163,-0.059c-0.045,-0.149 0.082,-3.572 0.128,-4.31c0.014,-0.366 0.068,-0.546 0.151,-0.571c0.099,-0.03 0.232,0.11 0.423,0.377c0.513,0.73 1.47,2.083 2.46,3.481c0.026,0.028 0.036,0.061 0.042,0.078ZM306.147,248.476c-0.289,0.118 -0.708,0.283 -1.117,0.425c-1.144,0.398 -1.362,0.455 -1.475,0.128c-0.314,-0.953 -0.734,-2.108 -0.838,-2.511c-0.218,-0.786 0.354,-1.039 1.236,-1.346c0.311,-0.108 0.605,-0.211 0.823,-0.268c1.45,-0.413 2.35,0.172 2.634,0.989c0.307,0.882 -0.094,2.048 -1.263,2.583ZM197.923,233.996c-2.511,6.015 -5.284,10.513 -7.898,10.79c-2.487,0.259 -2.39,-5.44 0.264,-11.345c2.757,-6.112 6.857,-10.848 8.916,-10.922c1.867,-0.05 1.81,3.964 -1.282,11.477ZM212.549,231.124c0.538,-1.454 1.045,-2.707 1.552,-3.96c2.165,-5.361 5.56,-9.172 7.204,-8.665c1.706,0.497 1.88,5.86 0.253,11.326c-1.966,6.562 -5.31,11.859 -7.606,10.55c-2.011,-1.161 -2.324,-5.006 -1.403,-9.251ZM234.139,227.316c0.506,-1.465 0.985,-2.729 1.464,-3.993c2.046,-5.408 5.356,-9.293 7.01,-8.822c1.717,0.459 2.01,5.816 0.504,11.317c-1.819,6.604 -5.046,11.974 -7.37,10.716c-2.036,-1.116 -2.434,-4.953 -1.608,-9.218ZM288.596,193.326c-3.144,10.291 -6.485,24.143 -6.922,30.086c-0.3,4.184 0.838,6.007 2.275,6.692c0.531,0.258 0.903,0.161 0.99,-0.523c0.714,-4.624 1.796,-9.874 2.955,-15.077c3.308,-1.79 7.841,-3.966 10.957,-4.712c0.744,-0.194 0.771,-0.599 0.44,-1.108c-1.043,-1.715 -2.933,-2.613 -5.985,-1.618c-1.1,0.353 -2.494,0.849 -4.026,1.579c1.583,-6.373 3.188,-12.156 4.436,-16.257c3.637,-1.545 7.654,-3.917 12.321,-5.068c0.807,-0.21 0.817,-0.677 0.502,-1.124c-1.308,-1.712 -3.243,-2.532 -5.91,-1.837c-3.472,0.906 -9.577,4.419 -14.788,5.513c-0.62,0.162 -0.742,0.459 -0.488,0.922c0.633,1.16 1.639,2.222 3.243,2.532ZM332.315,195.839c-0.095,-8.772 1.71,-17.804 4.157,-24.286c0.48,-1.322 1.254,-1.793 2.407,-1.381c2.364,0.798 3.653,2.826 4.133,5.897c1.282,8.028 -2.283,17.925 -6.06,23.589c0.12,6.782 1.569,11.949 4.32,11.048c2.929,-0.978 5.232,-6.986 5.584,-12.507c0.084,-0.942 0.707,-1.279 1.296,-0.556c0.699,0.817 1.019,2.213 0.977,3.905c-0.066,2.12 -2.269,8.853 -7.031,10.756c-2.471,0.976 -4.681,0.684 -6.35,-1.209c-1.529,3.084 -4.077,5.329 -7.667,6.668c-3.504,1.317 -6.529,0.634 -8.665,-1.381c-1.931,3.13 -4.976,5.753 -8.477,6.849c-7.761,2.454 -12.757,-4.414 -11.134,-13.527c1.624,-9.114 6.932,-14.179 10.534,-13.316c1.811,0.462 3.191,1.053 4.578,2.11c1.545,1.143 2.174,5.036 0.531,8.938c-1.908,4.583 -5.544,7.409 -10.889,5.194c-0.276,6.237 2.354,9.664 5.663,8.876c3.409,-0.843 5.881,-3.848 7.578,-7.185c-1.406,-2.417 -2.021,-5.729 -1.559,-9.472c1.135,-9.188 6.165,-14.529 9.808,-13.86c1.833,0.365 3.243,0.881 4.684,1.863c0.74,0.488 1.316,1.571 1.582,2.987ZM332.419,198.762c-0.094,0.957 -0.312,1.968 -0.679,2.987c-1.66,4.679 -5.14,7.695 -10.595,5.768c0.057,6.242 2.866,9.525 6.129,8.561c3.264,-0.995 5.535,-3.981 7.053,-7.29c-0.45,-1.021 -0.823,-2.247 -1.109,-3.693c-0.406,-2.046 -0.666,-4.172 -0.799,-6.333ZM304.708,211.114c0.031,-0.343 0.105,-0.767 0.179,-1.19c1.143,-6.696 5.138,-11.904 6.739,-11.245c1.062,0.418 0.665,4.015 -0.529,7.181c-1.083,2.866 -2.811,6.258 -6.389,5.254ZM321.213,205.996c0.012,-0.345 0.064,-0.772 0.115,-1.199c0.783,-6.747 4.494,-12.161 6.129,-11.589c1.082,0.362 0.878,3.974 -0.145,7.2c-0.929,2.919 -2.473,6.399 -6.099,5.588ZM336.926,196.671c0.008,-1.119 0.075,-2.264 0.201,-3.434c0.83,-9.281 2.384,-17.688 3.352,-17.546c0.968,0.143 1.712,10.981 -3.553,20.98Z" style="fill:#fff;"/></g><path d="M248.157,299.962c0,0 -3.903,8.993 -4.968,12.088c-0.609,1.766 -1.21,6.35 2.43,7.56c4.91,1.633 6.538,-6.404 6.52,-8.234c-0.041,-4.247 -1.312,-8.139 -3.982,-11.414Z" style="fill:#fdb912;"/><path d="M264.431,82.912c9.545,-7.722 23.011,-11.679 25.592,-10.1c2.76,1.689 -5.715,21.823 -13.768,30.04c-10.106,10.312 -41.696,10.866 -51.743,0.006c-7.845,-8.481 -15.83,-28.513 -13.677,-30.046c1.964,-1.398 20.014,1.716 27.733,10.1c6.08,-11.773 22.046,-23.422 25.863,-21.899c3.029,1.208 2.599,11.588 0,21.899Z" style="fill:#2f631c;"/></g></g></svg>