<?xml version="1.0" standalone="no"?><!DOCTYPE svg PUBLIC "-//W3C//DTD SVG 1.1//EN" "http://www.w3.org/Graphics/SVG/1.1/DTD/svg11.dtd"><svg width="100%" height="100%" viewBox="0 0 64 64" version="1.1" xmlns="http://www.w3.org/2000/svg" xmlns:xlink="http://www.w3.org/1999/xlink" xml:space="preserve" style="fill-rule:evenodd;clip-rule:evenodd;stroke-linejoin:round;stroke-miterlimit:1.41421;"><ellipse cx="32" cy="60.995" rx="7.538" ry="1.572" style="fill:#000;fill-opacity:0.152941;"/><g><path d="M15.766,30.859c-0.295,0.467 -4.755,-0.326 -11.166,4.06l7.243,4.516l-2.325,8.706c3.577,-2.171 5.915,-2.817 9.831,-3.188l-0.94,-12.026l-2.643,-2.068Z" style="fill:#5da038;"/><clipPath id="_clip1"><path d="M15.766,30.859c-0.295,0.467 -4.755,-0.326 -11.166,4.06l7.243,4.516l-2.325,8.706c3.577,-2.171 5.915,-2.817 9.831,-3.188l-0.94,-12.026l-2.643,-2.068Z"/></clipPath><g clip-path="url(#_clip1)"><path d="M19.984,40.871l0.424,-5.261l-4.843,3.311c1.217,1.169 3.206,1.528 4.419,1.95l0,0Z" style="fill:#2f631c;"/></g><path d="M46.828,26.582c3.209,-2.077 7.085,-2.847 11.653,-2.374l-6.095,-6.347l3.219,-7.451c-4.504,-0.403 -8.473,0.226 -11.653,2.375l2.876,13.797Z" style="fill:#5da038;"/><clipPath id="_clip2"><path d="M46.828,26.582c3.209,-2.077 7.085,-2.847 11.653,-2.374l-6.095,-6.347l3.219,-7.451c-4.504,-0.403 -8.473,0.226 -11.653,2.375l2.876,13.797Z"/></clipPath><g clip-path="url(#_clip2)"><path d="M50.041,16.217c-1.468,-1.037 -3.172,-1.433 -5.069,-1.297l1.073,4.538l3.996,-3.241Z" style="fill:#2f631c;"/></g><g><clipPath id="_clip3"><path d="M45.684,33.698c0.001,0.001 0.032,0.082 -0.694,7.817c-0.235,2.499 -0.549,5.798 -0.969,10.152c-0.266,2.763 -5.459,5.029 -12.183,5.029c-6.724,0 -11.918,-2.266 -12.183,-5.029c-1.717,-17.914 -1.663,-17.969 -1.663,-17.969c-0.708,-7.664 -1.231,-13.962 -1.236,-14.433c-0.113,-10.621 6.623,-12.551 14.945,-12.637c8.321,-0.086 15.097,1.703 15.209,12.324c0.008,0.705 -0.109,3.115 -1.226,14.746l0,0Z"/></clipPath><g clip-path="url(#_clip3)"><path d="M19.653,51.806c-0.11,-1.321 -0.444,-3.454 -0.444,-3.454c0,0 -1.805,-4.766 4.685,-2.557c2.343,0.798 4.543,2.624 5.296,1.46c0.218,-0.336 -0.143,-1.732 -0.676,-2.449c-0.584,-0.788 -1.367,-0.945 -1.732,-1.73c-0.213,-0.457 -0.054,-1.39 0.712,-1.417c1.4,-0.048 2.245,1.585 2.299,2.978c0.069,1.802 -0.314,2.187 0.378,3.16c1.028,1.448 6.899,-0.055 9.072,-1.054c7.301,-3.355 5.452,-0.948 5.452,-0.948c0,0 -0.666,5.918 -0.676,6.011c-0.275,2.596 -5.459,4.725 -12.183,4.725c-6.724,0 -11.966,-2.125 -12.183,-4.725l0,0Z" style="fill:#f8941d;"/><path d="M19.655,51.667c-0.11,-1.406 -0.447,-3.737 -0.447,-3.737c0,0 3.106,2.821 7.442,3.467c9.6,1.43 18.088,-6.317 18.088,-6.317c0,0 -0.707,6.488 -0.717,6.587c-0.275,2.762 -5.459,5.029 -12.183,5.029c-6.724,0 -11.967,-2.262 -12.183,-5.029l0,0Z" style="fill:#fdb912;"/><path d="M18.361,39.149c0.352,2.626 -0.821,8.948 1.871,7.73c0.335,-0.152 0.769,-0.778 0,-2.062c-0.463,-0.771 -1.141,-2.391 -0.999,-3.31c0.096,-0.626 0.358,-1.136 0.817,-1.328c1.675,-0.697 2.415,1.139 4.016,1.001c0.806,-0.069 3.184,-1.413 4.412,-1.691c2.659,-0.601 4.201,0.015 4.605,2.741c0.162,1.093 -1.217,4.118 0.103,4.603c1.44,0.528 2.704,-1.211 2.19,-3.034c-0.575,-2.033 -3.654,-4.608 -1.541,-5.02c0.967,-0.189 1.997,1.2 2.918,0.937c1.205,-0.345 1.604,-2.139 2.807,-2.246c0.86,-0.076 1.506,0.722 2.14,0.422c0.977,-0.462 1.789,-2.1 2.251,-2.405c0.614,-0.408 1.032,0.598 1.009,1.364c-0.035,1.194 -0.857,2.604 -1.51,3.328c-2.415,2.683 0.452,4.401 1.288,2.275c0.571,-1.453 4.714,-37.866 4.714,-37.866l-34.745,1.02c0,0 2.733,26.662 3.654,33.541l0,0Z" style="fill:#fdb912;"/><path d="M16.798,10.647c0.188,-0.897 1.158,1.778 3.676,2.293c2.519,0.515 7.704,0.792 7.537,1.104c-0.166,0.311 -6.017,1.281 -8.535,0.766c-2.518,-0.515 -2.866,-3.265 -2.678,-4.163l0,0Z" style="fill:#f8941d;"/><path d="M48.026,16.753c0.175,0.986 -0.362,1.905 -4.248,2.583c-3.887,0.678 -10.654,0.391 -13.386,-1.385c2.408,0.108 6.818,0.493 10.705,-0.185c3.886,-0.677 6.753,-1.999 6.929,-1.013l0,0Z" style="fill:#f8941d;"/></g></g><path d="M50.041,16.217c-13.661,5.025 -19.79,7.569 -37.149,8.341c-0.805,5.969 0.624,11.477 2.673,14.363c11.418,0.1 21.657,-1.329 33.459,-6.805c2.798,-5.017 2.129,-13.96 1.017,-15.899l0,0Z" style="fill:#5da038;"/><clipPath id="_clip4"><path d="M50.041,16.217c-13.661,5.025 -19.79,7.569 -37.149,8.341c-0.805,5.969 0.624,11.477 2.673,14.363c11.418,0.1 21.657,-1.329 33.459,-6.805c2.798,-5.017 2.129,-13.96 1.017,-15.899l0,0Z"/></clipPath><g clip-path="url(#_clip4)"><path d="M21.422,36.561c0.004,0.194 -0.107,0.303 -0.277,0.311c-0.046,0.002 -0.099,-0.001 -0.152,-0.016c-0.026,-0.007 -0.052,-0.008 -0.075,-0.007c-0.104,0.005 -0.158,0.085 -0.154,0.168c0.008,0.151 0.153,0.204 0.389,0.192c0.341,-0.017 0.617,-0.233 0.597,-0.625c-0.001,-0.005 -0.001,-0.014 -0.001,-0.02c-0.017,-0.214 -0.027,-0.419 -0.037,-0.616c-0.014,-0.277 -0.025,-0.543 -0.03,-0.806c0,-0.003 0,-0.003 0,-0.006c-0.005,-0.094 -0.091,-0.135 -0.175,-0.131c-0.13,0.006 -0.172,0.085 -0.165,0.159c0.024,0.251 0.04,0.5 0.053,0.754c0.01,0.208 0.018,0.42 0.027,0.643ZM23.658,37.06c0.423,-0.034 0.861,-0.366 0.797,-0.986c-0.018,-0.18 -0.033,-0.339 -0.047,-0.502c-0.014,-0.185 -0.027,-0.379 -0.04,-0.616c0,-0.003 0,-0.003 -0.001,-0.006c-0.008,-0.097 -0.095,-0.139 -0.179,-0.132c-0.057,0.005 -0.168,0.036 -0.155,0.164c0.013,0.123 0.026,0.248 0.036,0.373c0.02,0.251 0.035,0.505 0.055,0.753c0.031,0.388 -0.232,0.612 -0.503,0.633c-0.263,0.021 -0.537,-0.144 -0.568,-0.526l-0.009,-0.117c-0.019,-0.231 -0.043,-0.464 -0.062,-0.698c-0.009,-0.111 -0.015,-0.222 -0.021,-0.334c0,-0.002 0,-0.002 -0.001,-0.005c-0.007,-0.097 -0.095,-0.139 -0.176,-0.133c-0.115,0.009 -0.164,0.082 -0.155,0.165c0.019,0.164 0.033,0.335 0.047,0.509c0.017,0.208 0.034,0.419 0.047,0.619c0,0.006 0.001,0.008 0.001,0.014c0.048,0.596 0.501,0.858 0.934,0.825ZM25.847,36.674c-0.043,-0.349 -0.086,-0.719 -0.123,-1.074c-0.03,-0.276 -0.055,-0.543 -0.075,-0.78c0,-0.003 0,-0.003 -0.001,-0.006c-0.01,-0.094 -0.101,-0.13 -0.184,-0.121c-0.052,0.005 -0.178,0.05 -0.159,0.169c0.033,0.229 0.066,0.487 0.095,0.757c0.039,0.367 0.071,0.749 0.102,1.091l0,0.003c0.011,0.099 0.102,0.141 0.189,0.132c0.086,-0.009 0.167,-0.069 0.156,-0.168l0,-0.003l0,0ZM28.671,36.046c-0.013,-0.096 -0.119,-0.169 -0.217,-0.156c-0.051,0.007 -0.097,0.033 -0.13,0.092c-0.097,0.171 -0.3,0.282 -0.518,0.31c-0.605,0.08 -0.817,-0.434 -0.849,-0.672c-0.052,-0.383 0.151,-0.825 0.636,-0.889c0.18,-0.023 0.37,0.018 0.5,0.139c0.05,0.049 0.105,0.064 0.156,0.058c0.092,-0.012 0.164,-0.103 0.151,-0.199c-0.02,-0.153 -0.365,-0.373 -0.821,-0.313c-0.699,0.092 -1.035,0.693 -0.958,1.268c0.074,0.553 0.529,1.026 1.243,0.933c0.527,-0.07 0.827,-0.424 0.807,-0.571l0,0ZM30.365,34.31c0.108,-0.018 0.155,-0.104 0.143,-0.18c-0.013,-0.074 -0.076,-0.136 -0.186,-0.123c-0.043,0.004 -0.2,0.027 -0.363,0.054c-0.159,0.027 -0.321,0.056 -0.372,0.068c-0.229,0.05 -0.358,0.192 -0.325,0.419c0.024,0.179 0.087,0.563 0.145,0.906c0.039,0.229 0.074,0.438 0.1,0.555c0.054,0.246 0.232,0.312 0.498,0.289c0.037,-0.004 0.203,-0.028 0.366,-0.055c0.165,-0.028 0.33,-0.058 0.367,-0.067c0.121,-0.026 0.166,-0.112 0.153,-0.188c-0.013,-0.073 -0.079,-0.135 -0.179,-0.118c-0.006,0.001 -0.008,0.001 -0.014,0.002c-0.054,0.012 -0.236,0.045 -0.404,0.073c-0.402,0.067 -0.449,0.069 -0.485,-0.058c-0.014,-0.048 -0.028,-0.112 -0.099,-0.532c-0.01,-0.059 0.018,-0.067 0.371,-0.125c0.109,-0.018 0.218,-0.034 0.29,-0.04c0.006,-0.001 0.011,-0.002 0.014,-0.002c0.1,-0.017 0.138,-0.104 0.124,-0.186c-0.001,-0.009 -0.027,-0.158 -0.185,-0.123c-0.051,0.011 -0.188,0.034 -0.319,0.056c-0.351,0.058 -0.354,0.059 -0.363,0.002c-0.025,-0.164 -0.051,-0.301 -0.057,-0.37c-0.012,-0.123 0.047,-0.138 0.332,-0.186c0.194,-0.032 0.448,-0.071 0.448,-0.071l0,0ZM33.731,34.995c0.096,-0.021 0.127,-0.109 0.11,-0.188c-0.017,-0.078 -0.082,-0.143 -0.175,-0.123c-0.003,0.001 -0.003,0.001 -0.006,0.001c-0.135,0.032 -0.287,0.067 -0.434,0.099c-0.119,0.025 -0.235,0.047 -0.335,0.065c-0.003,0.001 -0.003,0.001 -0.005,0.001c-0.088,0.019 -0.116,0.107 -0.1,0.182c0.015,0.067 0.075,0.154 0.179,0.126c0.114,-0.03 0.198,-0.051 0.283,-0.069c0.125,-0.027 0.25,-0.048 0.48,-0.094l0.003,0l0,0ZM37.472,33.986c-0.069,-0.256 -0.296,-0.451 -0.604,-0.392c-0.031,0.005 -0.044,0.003 -0.045,0c-0.001,-0.006 0.014,-0.016 0.041,-0.029c0.188,-0.079 0.272,-0.321 0.214,-0.531c-0.063,-0.231 -0.302,-0.428 -0.774,-0.335c-0.042,0.008 -0.102,0.021 -0.163,0.037c-0.237,0.063 -0.546,0.151 -0.46,0.499c0.042,0.178 0.142,0.554 0.233,0.891c0.061,0.224 0.118,0.431 0.155,0.545c0.105,0.342 0.429,0.268 0.7,0.196c0.07,-0.019 0.142,-0.041 0.177,-0.053c0.476,-0.157 0.607,-0.532 0.526,-0.828l0,0ZM36.88,34.529c-0.052,0.017 -0.121,0.038 -0.185,0.055c-0.26,0.069 -0.297,0.044 -0.338,-0.055c-0.029,-0.072 -0.064,-0.199 -0.158,-0.544c-0.015,-0.055 0.008,-0.07 0.268,-0.139c0.07,-0.019 0.143,-0.036 0.214,-0.049c0.263,-0.049 0.418,0.082 0.462,0.245c0.051,0.185 -0.035,0.412 -0.263,0.487ZM40.001,33.74c-0.007,-0.024 -0.021,-0.05 -0.041,-0.074c-0.157,-0.186 -0.811,-1.028 -1.141,-1.467c-0.082,-0.109 -0.21,-0.142 -0.315,-0.11c-0.1,0.03 -0.181,0.117 -0.187,0.257c-0.084,1.867 -0.085,1.891 -0.07,1.941c0.026,0.084 0.123,0.112 0.2,0.089c0.067,-0.021 0.119,-0.075 0.12,-0.16c0.001,-0.143 0.004,-0.359 0.006,-0.596c0,-0.018 0.012,-0.031 0.026,-0.035c0.057,-0.02 0.242,-0.076 0.408,-0.127c0.124,-0.037 0.238,-0.072 0.283,-0.082c0.016,-0.005 0.027,0 0.038,0.015c0.164,0.228 0.304,0.425 0.362,0.495c0.049,0.062 0.125,0.072 0.189,0.053c0.085,-0.026 0.151,-0.106 0.122,-0.199l0,0ZM20.85,29.648c-0.173,-0.02 -0.376,-0.016 -0.599,0.009c-0.316,0.712 -0.638,1.498 -0.936,2.314c-0.035,0.108 -0.109,0.124 -0.18,0.033c-0.164,-0.201 -0.281,-0.501 -0.112,-1.16c0.06,-0.216 0.195,-0.597 0.378,-1.044c-0.773,0.147 -1.586,0.34 -2.088,0.374c-0.286,0.678 -0.569,1.397 -0.83,2.126c-0.036,0.109 -0.119,0.146 -0.19,0.055c-0.175,-0.211 -0.271,-0.501 -0.133,-1.158c0.048,-0.226 0.204,-0.619 0.385,-1.109c-0.243,-0.089 -0.339,-0.232 -0.387,-0.313c-0.073,-0.123 -0.055,-0.166 0.128,-0.168c0.161,0 0.312,0.011 0.451,0.001c0.586,-1.451 1.454,-3.346 1.849,-3.988c0.088,-0.133 0.185,-0.119 0.258,-0.007c0.18,0.285 0.184,0.805 -0.159,1.582c-0.269,0.612 -0.656,1.392 -1.065,2.301c0.731,-0.145 1.381,-0.37 2.083,-0.46c0.6,-1.409 1.424,-3.153 1.813,-3.742c0.097,-0.144 0.194,-0.14 0.268,-0.007c0.171,0.296 0.173,0.795 -0.221,1.618c-0.281,0.592 -0.649,1.328 -1.051,2.183c0.221,0.078 0.357,0.219 0.424,0.371c0.012,-0.024 0.024,-0.048 0.037,-0.073c0.697,-1.35 1.473,-1.931 2.004,-1.999c0.457,-0.059 0.715,0.26 0.748,0.672c0.105,-0.269 0.203,-0.506 0.298,-0.689c0.077,-0.149 0.159,-0.181 0.246,-0.096c0.184,0.168 0.329,0.609 0.143,1.167c-0.171,0.502 -0.598,1.358 -0.779,1.948c-0.188,0.622 -0.139,1.075 0.219,1.007c0.045,-0.008 0.091,-0.024 0.137,-0.046c0.439,-1.498 1.17,-3.545 1.542,-4.252c0.083,-0.153 0.181,-0.148 0.255,-0.031c0.075,0.127 0.123,0.28 0.142,0.46c0.398,-0.473 0.973,-0.868 1.506,-0.473c0.596,0.45 0.52,1.418 0.272,2.339c-0.201,0.741 -0.508,1.307 -0.869,1.613c0.334,-0.076 0.614,-0.219 0.846,-0.402c0.409,-1.491 1.062,-3.445 1.406,-4.136c0.079,-0.155 0.178,-0.152 0.254,-0.037c0.079,0.126 0.129,0.278 0.153,0.457c0.387,-0.482 0.953,-0.889 1.495,-0.505c0.606,0.436 0.551,1.405 0.324,2.331c-0.184,0.746 -0.478,1.318 -0.833,1.632c0.506,-0.126 0.881,-0.403 1.156,-0.745c-0.07,-0.246 -0.073,-0.546 -0.031,-0.842c0.098,-0.71 0.407,-1.839 0.903,-2.907c0.061,-0.131 0.169,-0.141 0.263,-0.052c0.319,0.283 0.343,0.732 0.077,1.421c-0.258,0.676 -0.404,1.147 -0.506,1.675c-0.108,0.55 -0.014,0.909 0.231,0.883c0.416,-0.049 0.809,-0.817 1.164,-1.825c0.298,-0.857 0.562,-1.881 0.824,-2.482c0.068,-0.154 0.137,-0.189 0.248,-0.124c0.185,0.158 0.358,0.588 0.191,1.171c-0.195,0.664 -0.586,2.036 -0.826,3.13c0.732,-0.596 1.234,-1.31 1.54,-1.963c0.038,-0.083 0.13,-0.112 0.172,-0.012c0.04,0.089 0.056,0.334 -0.069,0.639c-0.28,0.724 -0.937,1.263 -1.738,1.787c-0.31,1.507 -0.721,3.325 -1.527,3.828c-0.185,0.112 -0.385,0.151 -0.642,-0.101c-0.273,-0.271 -0.556,-0.593 -0.468,-1.247c0.128,-0.997 0.896,-1.795 1.855,-2.403c0.057,-0.26 0.111,-0.54 0.176,-0.812c-0.259,0.396 -0.604,0.744 -1.031,0.796c-0.314,0.035 -0.528,-0.071 -0.665,-0.257c-0.242,0.35 -0.569,0.562 -1.054,0.688c-0.665,0.167 -1.125,0.156 -1.557,-0.109c-0.259,-0.156 -0.41,-0.376 -0.491,-0.63c-0.324,0.987 -0.658,2.148 -0.943,3.398c-0.024,0.101 -0.094,0.136 -0.175,0.054c-0.199,-0.189 -0.308,-0.471 -0.229,-1.143c0.029,-0.249 0.113,-0.639 0.232,-1.102c-0.148,0.088 -0.311,0.155 -0.488,0.197c-0.669,0.152 -1.128,0.131 -1.554,-0.143c-0.255,-0.162 -0.401,-0.385 -0.477,-0.641c-0.346,0.98 -0.706,2.134 -1.019,3.377c-0.026,0.101 -0.097,0.134 -0.176,0.05c-0.195,-0.194 -0.297,-0.477 -0.203,-1.147c0.033,-0.241 0.121,-0.611 0.243,-1.051c-0.019,0.003 -0.039,0.005 -0.059,0.007c-0.578,0.042 -0.92,-0.255 -0.985,-0.749c-0.283,0.475 -0.71,0.925 -1.219,0.991c-0.925,0.119 -1.315,-1.02 -0.775,-2.303l0,0ZM36.353,32.988c0.246,-0.066 0.382,0.028 0.418,0.158c0.039,0.146 -0.047,0.335 -0.245,0.4c-0.049,0.016 -0.122,0.035 -0.189,0.053c-0.184,0.049 -0.224,0.059 -0.239,0.001c-0.041,-0.161 -0.087,-0.317 -0.099,-0.385c-0.02,-0.107 0.029,-0.144 0.208,-0.191c0.073,-0.02 0.146,-0.036 0.146,-0.036ZM41.695,32.963c0.301,0.263 0.528,0.194 0.572,0.179c0.12,-0.041 0.147,-0.138 0.118,-0.219c-0.026,-0.076 -0.101,-0.132 -0.198,-0.111c-0.096,0.021 -0.177,-0.008 -0.285,-0.095c-0.148,-0.119 -0.283,-0.257 -0.468,-0.357c-0.027,-0.015 -0.05,-0.022 -0.054,-0.033c-0.003,-0.008 0.004,-0.013 0.021,-0.026c0.229,-0.133 0.302,-0.412 0.22,-0.644c-0.089,-0.254 -0.362,-0.448 -0.815,-0.325c-0.042,0.011 -0.106,0.03 -0.169,0.052c-0.229,0.079 -0.54,0.186 -0.427,0.534c0.036,0.112 0.04,0.123 0.245,0.706c0.105,0.297 0.218,0.618 0.298,0.872c0.001,0.003 0.001,0.003 0.002,0.006c0.031,0.089 0.121,0.109 0.195,0.084c0.079,-0.027 0.141,-0.103 0.109,-0.204c-0.034,-0.097 -0.198,-0.537 -0.27,-0.74c-0.017,-0.048 0.021,-0.064 0.073,-0.082c0.051,-0.018 0.115,-0.037 0.151,-0.049c0.132,-0.043 0.402,0.213 0.682,0.452l0,0ZM33.208,30.648c-0.346,1.655 -0.981,2.955 -1.157,2.785c-0.241,-0.223 -0.053,-1.739 1.157,-2.785ZM39.116,33.099c0.003,0.008 -0.002,0.013 -0.018,0.018c-0.039,0.012 -0.135,0.044 -0.235,0.074c-0.096,0.029 -0.199,0.057 -0.255,0.074c-0.016,0.005 -0.023,0.001 -0.027,-0.01c-0.007,-0.024 0.014,-0.59 0.021,-0.712c0.003,-0.06 0.012,-0.09 0.026,-0.094c0.016,-0.005 0.039,0.018 0.07,0.062c0.086,0.121 0.246,0.344 0.411,0.575c0.005,0.005 0.007,0.011 0.007,0.013ZM41.102,32.199c-0.048,0.019 -0.118,0.046 -0.187,0.07c-0.191,0.066 -0.227,0.075 -0.246,0.021c-0.053,-0.157 -0.123,-0.348 -0.14,-0.415c-0.037,-0.13 0.059,-0.171 0.206,-0.222c0.052,-0.018 0.101,-0.035 0.138,-0.044c0.242,-0.069 0.392,0.028 0.44,0.163c0.051,0.146 -0.016,0.338 -0.211,0.427l0,0ZM23.016,29.806c-0.42,0.994 -0.884,1.737 -1.32,1.783c-0.416,0.043 -0.4,-0.899 0.044,-1.875c0.461,-1.009 1.146,-1.792 1.49,-1.804c0.312,-0.008 0.302,0.655 -0.214,1.896ZM25.46,29.332c0.09,-0.241 0.175,-0.448 0.259,-0.655c0.362,-0.886 0.929,-1.515 1.204,-1.431c0.285,0.082 0.314,0.968 0.042,1.871c-0.328,1.084 -0.887,1.959 -1.271,1.743c-0.336,-0.192 -0.388,-0.827 -0.234,-1.528ZM29.068,28.702c0.085,-0.242 0.165,-0.451 0.245,-0.66c0.342,-0.893 0.895,-1.535 1.171,-1.457c0.287,0.076 0.336,0.961 0.084,1.87c-0.304,1.091 -0.843,1.978 -1.231,1.771c-0.341,-0.185 -0.407,-0.819 -0.269,-1.524ZM38.169,23.086c-0.526,1.7 -1.084,3.989 -1.157,4.971c-0.05,0.692 0.14,0.993 0.38,1.106c0.089,0.043 0.151,0.027 0.166,-0.086c0.119,-0.765 0.3,-1.632 0.493,-2.492c0.553,-0.295 1.311,-0.655 1.832,-0.778c0.124,-0.032 0.129,-0.099 0.073,-0.183c-0.174,-0.284 -0.49,-0.432 -1,-0.268c-0.184,0.059 -0.417,0.141 -0.673,0.261c0.265,-1.053 0.533,-2.008 0.741,-2.686c0.608,-0.255 1.28,-0.647 2.059,-0.837c0.135,-0.035 0.137,-0.112 0.084,-0.186c-0.218,-0.283 -0.542,-0.419 -0.987,-0.304c-0.581,0.15 -1.601,0.731 -2.472,0.911c-0.103,0.027 -0.124,0.076 -0.081,0.153c0.106,0.191 0.274,0.367 0.542,0.418l0,0ZM45.475,23.501c-0.016,-1.449 0.286,-2.942 0.695,-4.013c0.08,-0.218 0.209,-0.296 0.402,-0.228c0.395,0.132 0.61,0.467 0.691,0.975c0.214,1.326 -0.382,2.961 -1.013,3.897c0.02,1.121 0.262,1.975 0.722,1.826c0.489,-0.162 0.874,-1.155 0.933,-2.067c0.014,-0.155 0.118,-0.211 0.217,-0.092c0.116,0.135 0.17,0.366 0.163,0.646c-0.011,0.35 -0.379,1.462 -1.175,1.777c-0.413,0.161 -0.782,0.113 -1.061,-0.2c-0.256,0.51 -0.682,0.881 -1.282,1.102c-0.585,0.217 -1.091,0.105 -1.448,-0.228c-0.322,0.517 -0.831,0.95 -1.416,1.131c-1.297,0.406 -2.132,-0.729 -1.861,-2.235c0.271,-1.506 1.158,-2.343 1.76,-2.2c0.303,0.076 0.534,0.174 0.765,0.349c0.259,0.189 0.364,0.832 0.089,1.477c-0.319,0.757 -0.926,1.224 -1.819,0.858c-0.047,1.03 0.393,1.597 0.946,1.466c0.569,-0.139 0.983,-0.635 1.266,-1.187c-0.235,-0.399 -0.337,-0.946 -0.26,-1.565c0.189,-1.518 1.03,-2.401 1.639,-2.29c0.306,0.06 0.542,0.145 0.782,0.308c0.124,0.08 0.22,0.259 0.265,0.493l0,0ZM45.492,23.984c-0.015,0.158 -0.052,0.325 -0.113,0.494c-0.277,0.773 -0.859,1.271 -1.771,0.953c0.01,1.031 0.479,1.574 1.025,1.414c0.545,-0.164 0.924,-0.657 1.178,-1.204c-0.075,-0.169 -0.137,-0.371 -0.185,-0.61c-0.068,-0.338 -0.111,-0.69 -0.134,-1.047l0,0ZM40.861,26.025c0.006,-0.057 0.018,-0.126 0.03,-0.196c0.191,-1.107 0.859,-1.967 1.126,-1.858c0.178,0.069 0.112,0.663 -0.088,1.186c-0.181,0.474 -0.47,1.034 -1.068,0.868l0,0ZM43.62,25.18c0.002,-0.058 0.01,-0.128 0.019,-0.199c0.131,-1.114 0.751,-2.009 1.024,-1.914c0.181,0.059 0.147,0.656 -0.024,1.189c-0.155,0.483 -0.413,1.058 -1.019,0.924l0,0ZM46.246,23.639c0.001,-0.185 0.012,-0.374 0.033,-0.568c0.139,-1.533 0.399,-2.922 0.56,-2.899c0.162,0.024 0.286,1.815 -0.593,3.467l0,0Z" style="fill:#fff;"/></g><path d="M31.411,40.706c0,0 -0.653,1.486 -0.831,1.997c-0.101,0.292 -0.202,1.05 0.406,1.25c0.821,0.27 1.093,-1.059 1.09,-1.361c-0.007,-0.702 -0.219,-1.345 -0.665,-1.886Z" style="fill:#fdb912;"/><path d="M34.13,4.842c1.595,-1.276 3.846,-1.93 4.277,-1.669c0.461,0.279 -0.955,3.606 -2.301,4.964c-1.688,1.704 -6.968,1.795 -8.647,0.001c-1.311,-1.402 -2.645,-4.712 -2.285,-4.965c0.328,-0.231 3.344,0.284 4.634,1.669c1.016,-1.945 3.684,-3.87 4.322,-3.619c0.507,0.2 0.435,1.915 0,3.619Z" style="fill:#2f631c;"/></g></svg>