<?xml version="1.0" standalone="no"?>
<!DOCTYPE svg PUBLIC "-//W3C//DTD SVG 20010904//EN"
 "http://www.w3.org/TR/2001/REC-SVG-20010904/DTD/svg10.dtd">
<svg version="1.0" xmlns="http://www.w3.org/2000/svg"
 width="700.000000pt" height="700.000000pt" viewBox="0 0 700.000000 700.000000"
 preserveAspectRatio="xMidYMid meet">
<metadata>
Created by potrace 1.11, written by Peter Selinger 2001-2013
</metadata>
<g transform="translate(0.000000,700.000000) scale(0.100000,-0.100000)"
fill="#000000" stroke="none">
<path d="M3745 6817 c-140 -56 -346 -244 -441 -403 -9 -16 -15 -14 -65 24
-122 92 -297 154 -444 156 l-50 1 -1 -37 c-1 -50 45 -180 111 -312 31 -60 54
-111 51 -113 -2 -2 -19 -7 -38 -9 -221 -31 -501 -146 -666 -273 -127 -99 -206
-193 -286 -341 -41 -77 -108 -258 -121 -327 -23 -127 -36 -209 -40 -268 -6
-71 -6 -308 -1 -374 3 -36 8 -96 11 -135 4 -39 8 -93 10 -121 11 -141 18 -211
21 -217 8 -13 -32 -17 -376 -34 -69 -3 -126 -7 -128 -9 -31 -28 -37 -569 -8
-785 4 -25 0 -27 -93 -49 -129 -30 -314 -93 -417 -142 -46 -21 -86 -39 -88
-39 -10 0 -183 -99 -274 -157 -84 -53 -101 -68 -90 -78 7 -7 119 -79 248 -160
129 -81 251 -157 270 -170 19 -12 98 -62 175 -110 77 -48 141 -89 143 -90 4
-3 -28 -130 -159 -623 -60 -227 -109 -415 -109 -418 0 -3 15 3 33 14 86 54
251 138 372 192 51 22 203 72 260 85 6 2 30 8 55 15 25 7 56 14 70 16 14 3 48
9 75 14 77 14 115 20 179 26 33 3 63 7 67 10 11 6 17 -22 25 -111 3 -44 8 -91
9 -105 2 -14 7 -65 10 -115 4 -49 9 -97 10 -106 2 -9 6 -56 10 -105 3 -49 8
-100 10 -114 2 -14 7 -56 10 -95 8 -80 33 -159 66 -207 129 -188 489 -350 919
-414 193 -28 597 -39 760 -19 167 20 224 28 315 46 453 91 769 281 824 494 9
39 15 81 26 195 3 30 7 75 10 100 2 25 7 79 11 120 4 41 8 89 9 105 2 17 6 62
9 100 4 39 8 80 10 91 4 21 9 107 7 131 -3 33 -233 -26 -411 -104 -30 -14 -68
-30 -85 -38 -210 -92 -316 -131 -475 -174 -351 -95 -609 -110 -705 -42 -71 51
-79 79 -86 301 -6 216 -6 214 -45 296 -49 105 -124 164 -208 166 -72 1 -110
-42 -107 -121 2 -55 28 -92 120 -166 38 -30 80 -72 93 -93 72 -108 105 -274
63 -306 -58 -45 -126 -31 -346 74 -278 133 -427 180 -584 184 l-90 2 -52 104
c-54 109 -96 246 -95 312 3 175 146 257 303 173 241 -129 243 -129 469 -30
311 135 388 157 541 150 131 -5 196 -39 259 -136 23 -35 45 -88 56 -131 23
-95 21 -131 -15 -316 -24 -122 -27 -232 -7 -269 20 -39 60 -58 118 -57 94 1
178 91 199 212 21 119 -15 224 -146 423 -70 107 -121 202 -126 234 -10 66 41
111 117 102 24 -2 71 -19 106 -38 126 -66 142 -73 178 -72 53 1 108 40 178
125 75 92 99 113 143 132 44 18 80 14 178 -20 48 -18 85 -25 101 -21 41 10
106 73 192 184 44 58 91 109 105 114 51 19 94 -44 101 -147 4 -57 -9 -122 -39
-202 -6 -15 -9 -28 -7 -28 2 -1 -4 -10 -13 -20 -9 -11 -28 -41 -44 -68 -15
-27 -50 -77 -77 -110 -54 -67 -95 -145 -103 -200 -8 -45 11 -115 37 -143 21
-23 76 -39 112 -34 82 12 131 125 151 346 3 39 8 84 10 100 2 17 7 62 10 100
3 39 7 86 10 105 2 19 7 71 11 115 3 44 7 96 9 115 2 19 7 76 11 125 4 50 8
101 9 115 1 14 3 32 4 41 1 11 24 26 64 42 34 14 123 53 198 87 l136 61 31 67
c60 129 120 320 146 467 16 88 42 284 45 336 1 14 71 36 176 54 43 7 86 15
115 20 93 17 355 23 510 11 l95 -8 -40 43 c-22 24 -74 80 -117 124 -42 44 -91
96 -108 115 -28 30 -219 231 -397 418 -29 30 -53 60 -53 67 0 7 30 81 66 166
92 216 94 221 110 252 9 15 12 27 8 27 -3 0 -2 6 4 13 5 6 33 68 61 137 28 69
56 133 61 142 12 22 60 140 60 148 0 22 -516 17 -631 -5 -13 -3 -44 -8 -69
-11 -108 -14 -344 -85 -428 -128 -77 -40 -78 -40 -113 17 -19 29 -36 54 -39
57 -3 3 -18 22 -34 44 -16 21 -50 59 -75 84 -49 48 -196 161 -221 170 -8 3
-26 13 -40 22 -33 23 -210 93 -285 113 -80 22 -195 49 -220 52 -11 1 -25 3
-32 4 -7 0 1 24 21 59 98 173 163 366 133 390 -24 20 -139 2 -227 -34 -77 -32
-186 -91 -227 -122 -25 -19 -46 -32 -48 -30 -2 2 3 37 11 78 8 41 17 120 19
175 7 149 -21 193 -100 162z"/>
<path d="M3432 1962 c-69 -170 -68 -238 3 -259 52 -16 89 12 114 87 27 85 10
189 -47 272 l-18 28 -52 -128z"/>
</g>
</svg>
